G04 #@! TF.GenerationSoftware,KiCad,Pcbnew,5.1.5+dfsg1-2build2*
G04 #@! TF.CreationDate,2020-11-03T02:55:08+01:00*
G04 #@! TF.ProjectId,VQFN20-P0.4mm-to-PDIP20-adapter,5651464e-3230-42d5-9030-2e346d6d2d74,rev?*
G04 #@! TF.SameCoordinates,Original*
G04 #@! TF.FileFunction,Copper,L1,Top*
G04 #@! TF.FilePolarity,Positive*
%FSLAX46Y46*%
G04 Gerber Fmt 4.6, Leading zero omitted, Abs format (unit mm)*
G04 Created by KiCad (PCBNEW 5.1.5+dfsg1-2build2) date 2020-11-03 02:55:08*
%MOMM*%
%LPD*%
G04 APERTURE LIST*
%ADD10O,1.600000X1.600000*%
%ADD11R,1.600000X1.600000*%
%ADD12C,0.100000*%
%ADD13C,0.800000*%
%ADD14C,0.250000*%
%ADD15C,0.152400*%
G04 APERTURE END LIST*
D10*
X132588000Y-73279000D03*
X124968000Y-96139000D03*
X132588000Y-75819000D03*
X124968000Y-93599000D03*
X132588000Y-78359000D03*
X124968000Y-91059000D03*
X132588000Y-80899000D03*
X124968000Y-88519000D03*
X132588000Y-83439000D03*
X124968000Y-85979000D03*
X132588000Y-85979000D03*
X124968000Y-83439000D03*
X132588000Y-88519000D03*
X124968000Y-80899000D03*
X132588000Y-91059000D03*
X124968000Y-78359000D03*
X132588000Y-93599000D03*
X124968000Y-75819000D03*
X132588000Y-96139000D03*
D11*
X124968000Y-73279000D03*
G04 #@! TA.AperFunction,SMDPad,CuDef*
D12*
G36*
X127133779Y-78306344D02*
G01*
X127156834Y-78309763D01*
X127179443Y-78315427D01*
X127201387Y-78323279D01*
X127222457Y-78333244D01*
X127242448Y-78345226D01*
X127261168Y-78359110D01*
X127278438Y-78374762D01*
X127294090Y-78392032D01*
X127307974Y-78410752D01*
X127319956Y-78430743D01*
X127329921Y-78451813D01*
X127337773Y-78473757D01*
X127343437Y-78496366D01*
X127346856Y-78519421D01*
X127348000Y-78542700D01*
X127348000Y-79117700D01*
X127346856Y-79140979D01*
X127343437Y-79164034D01*
X127337773Y-79186643D01*
X127329921Y-79208587D01*
X127319956Y-79229657D01*
X127307974Y-79249648D01*
X127294090Y-79268368D01*
X127278438Y-79285638D01*
X127261168Y-79301290D01*
X127242448Y-79315174D01*
X127222457Y-79327156D01*
X127201387Y-79337121D01*
X127179443Y-79344973D01*
X127156834Y-79350637D01*
X127133779Y-79354056D01*
X127110500Y-79355200D01*
X126635500Y-79355200D01*
X126612221Y-79354056D01*
X126589166Y-79350637D01*
X126566557Y-79344973D01*
X126544613Y-79337121D01*
X126523543Y-79327156D01*
X126503552Y-79315174D01*
X126484832Y-79301290D01*
X126467562Y-79285638D01*
X126451910Y-79268368D01*
X126438026Y-79249648D01*
X126426044Y-79229657D01*
X126416079Y-79208587D01*
X126408227Y-79186643D01*
X126402563Y-79164034D01*
X126399144Y-79140979D01*
X126398000Y-79117700D01*
X126398000Y-78542700D01*
X126399144Y-78519421D01*
X126402563Y-78496366D01*
X126408227Y-78473757D01*
X126416079Y-78451813D01*
X126426044Y-78430743D01*
X126438026Y-78410752D01*
X126451910Y-78392032D01*
X126467562Y-78374762D01*
X126484832Y-78359110D01*
X126503552Y-78345226D01*
X126523543Y-78333244D01*
X126544613Y-78323279D01*
X126566557Y-78315427D01*
X126589166Y-78309763D01*
X126612221Y-78306344D01*
X126635500Y-78305200D01*
X127110500Y-78305200D01*
X127133779Y-78306344D01*
G37*
G04 #@! TD.AperFunction*
G04 #@! TA.AperFunction,SMDPad,CuDef*
G36*
X127133779Y-80056344D02*
G01*
X127156834Y-80059763D01*
X127179443Y-80065427D01*
X127201387Y-80073279D01*
X127222457Y-80083244D01*
X127242448Y-80095226D01*
X127261168Y-80109110D01*
X127278438Y-80124762D01*
X127294090Y-80142032D01*
X127307974Y-80160752D01*
X127319956Y-80180743D01*
X127329921Y-80201813D01*
X127337773Y-80223757D01*
X127343437Y-80246366D01*
X127346856Y-80269421D01*
X127348000Y-80292700D01*
X127348000Y-80867700D01*
X127346856Y-80890979D01*
X127343437Y-80914034D01*
X127337773Y-80936643D01*
X127329921Y-80958587D01*
X127319956Y-80979657D01*
X127307974Y-80999648D01*
X127294090Y-81018368D01*
X127278438Y-81035638D01*
X127261168Y-81051290D01*
X127242448Y-81065174D01*
X127222457Y-81077156D01*
X127201387Y-81087121D01*
X127179443Y-81094973D01*
X127156834Y-81100637D01*
X127133779Y-81104056D01*
X127110500Y-81105200D01*
X126635500Y-81105200D01*
X126612221Y-81104056D01*
X126589166Y-81100637D01*
X126566557Y-81094973D01*
X126544613Y-81087121D01*
X126523543Y-81077156D01*
X126503552Y-81065174D01*
X126484832Y-81051290D01*
X126467562Y-81035638D01*
X126451910Y-81018368D01*
X126438026Y-80999648D01*
X126426044Y-80979657D01*
X126416079Y-80958587D01*
X126408227Y-80936643D01*
X126402563Y-80914034D01*
X126399144Y-80890979D01*
X126398000Y-80867700D01*
X126398000Y-80292700D01*
X126399144Y-80269421D01*
X126402563Y-80246366D01*
X126408227Y-80223757D01*
X126416079Y-80201813D01*
X126426044Y-80180743D01*
X126438026Y-80160752D01*
X126451910Y-80142032D01*
X126467562Y-80124762D01*
X126484832Y-80109110D01*
X126503552Y-80095226D01*
X126523543Y-80083244D01*
X126544613Y-80073279D01*
X126566557Y-80065427D01*
X126589166Y-80059763D01*
X126612221Y-80056344D01*
X126635500Y-80055200D01*
X127110500Y-80055200D01*
X127133779Y-80056344D01*
G37*
G04 #@! TD.AperFunction*
G04 #@! TA.AperFunction,SMDPad,CuDef*
G36*
X128929504Y-83992676D02*
G01*
X128953773Y-83996276D01*
X128977571Y-84002237D01*
X129000671Y-84010502D01*
X129022849Y-84020992D01*
X129043893Y-84033605D01*
X129063598Y-84048219D01*
X129081777Y-84064695D01*
X129930305Y-84913223D01*
X129946781Y-84931402D01*
X129961395Y-84951107D01*
X129974008Y-84972151D01*
X129984498Y-84994329D01*
X129992763Y-85017429D01*
X129998724Y-85041227D01*
X130002324Y-85065496D01*
X130003528Y-85090000D01*
X130002324Y-85114504D01*
X129998724Y-85138773D01*
X129992763Y-85162571D01*
X129984498Y-85185671D01*
X129974008Y-85207849D01*
X129961395Y-85228893D01*
X129946781Y-85248598D01*
X129930305Y-85266777D01*
X129081777Y-86115305D01*
X129063598Y-86131781D01*
X129043893Y-86146395D01*
X129022849Y-86159008D01*
X129000671Y-86169498D01*
X128977571Y-86177763D01*
X128953773Y-86183724D01*
X128929504Y-86187324D01*
X128905000Y-86188528D01*
X128880496Y-86187324D01*
X128856227Y-86183724D01*
X128832429Y-86177763D01*
X128809329Y-86169498D01*
X128787151Y-86159008D01*
X128766107Y-86146395D01*
X128746402Y-86131781D01*
X128728223Y-86115305D01*
X127879695Y-85266777D01*
X127863219Y-85248598D01*
X127848605Y-85228893D01*
X127835992Y-85207849D01*
X127825502Y-85185671D01*
X127817237Y-85162571D01*
X127811276Y-85138773D01*
X127807676Y-85114504D01*
X127806472Y-85090000D01*
X127807676Y-85065496D01*
X127811276Y-85041227D01*
X127817237Y-85017429D01*
X127825502Y-84994329D01*
X127835992Y-84972151D01*
X127848605Y-84951107D01*
X127863219Y-84931402D01*
X127879695Y-84913223D01*
X128728223Y-84064695D01*
X128746402Y-84048219D01*
X128766107Y-84033605D01*
X128787151Y-84020992D01*
X128809329Y-84010502D01*
X128832429Y-84002237D01*
X128856227Y-83996276D01*
X128880496Y-83992676D01*
X128905000Y-83991472D01*
X128929504Y-83992676D01*
G37*
G04 #@! TD.AperFunction*
G04 #@! TA.AperFunction,SMDPad,CuDef*
G36*
X128733939Y-83647506D02*
G01*
X128738559Y-83656150D01*
X128741405Y-83665530D01*
X128742365Y-83675284D01*
X128742365Y-83747000D01*
X128741405Y-83756754D01*
X128738559Y-83766134D01*
X128733939Y-83774778D01*
X128727721Y-83782355D01*
X128692868Y-83817208D01*
X128685291Y-83823426D01*
X128676647Y-83828047D01*
X128667267Y-83830892D01*
X128657513Y-83831852D01*
X128647759Y-83830892D01*
X128638379Y-83828047D01*
X128629735Y-83823426D01*
X128622158Y-83817208D01*
X128127183Y-83322233D01*
X128120965Y-83314656D01*
X128116344Y-83306012D01*
X128113499Y-83296632D01*
X128112539Y-83286878D01*
X128113499Y-83277124D01*
X128116344Y-83267744D01*
X128120965Y-83259100D01*
X128127183Y-83251523D01*
X128197894Y-83180812D01*
X128205471Y-83174594D01*
X128214115Y-83169973D01*
X128223495Y-83167128D01*
X128233249Y-83166168D01*
X128243003Y-83167128D01*
X128252383Y-83169973D01*
X128261027Y-83174594D01*
X128268604Y-83180812D01*
X128727721Y-83639929D01*
X128733939Y-83647506D01*
G37*
G04 #@! TD.AperFunction*
G04 #@! TA.AperFunction,SMDPad,CuDef*
G36*
X127955307Y-83449250D02*
G01*
X127960161Y-83449970D01*
X127964920Y-83451162D01*
X127969540Y-83452815D01*
X127973976Y-83454913D01*
X127978185Y-83457436D01*
X127982126Y-83460358D01*
X127985761Y-83463654D01*
X128480736Y-83958629D01*
X128484032Y-83962264D01*
X128486954Y-83966205D01*
X128489477Y-83970414D01*
X128491575Y-83974850D01*
X128493228Y-83979470D01*
X128494420Y-83984229D01*
X128495140Y-83989083D01*
X128495381Y-83993984D01*
X128495140Y-83998885D01*
X128494420Y-84003739D01*
X128493228Y-84008498D01*
X128491575Y-84013118D01*
X128489477Y-84017554D01*
X128486954Y-84021763D01*
X128484032Y-84025704D01*
X128480736Y-84029339D01*
X128410025Y-84100050D01*
X128406390Y-84103346D01*
X128402449Y-84106268D01*
X128398240Y-84108791D01*
X128393804Y-84110889D01*
X128389184Y-84112542D01*
X128384425Y-84113734D01*
X128379571Y-84114454D01*
X128374670Y-84114695D01*
X128369769Y-84114454D01*
X128364915Y-84113734D01*
X128360156Y-84112542D01*
X128355536Y-84110889D01*
X128351100Y-84108791D01*
X128346891Y-84106268D01*
X128342950Y-84103346D01*
X128339315Y-84100050D01*
X127844340Y-83605075D01*
X127841044Y-83601440D01*
X127838122Y-83597499D01*
X127835599Y-83593290D01*
X127833501Y-83588854D01*
X127831848Y-83584234D01*
X127830656Y-83579475D01*
X127829936Y-83574621D01*
X127829695Y-83569720D01*
X127829936Y-83564819D01*
X127830656Y-83559965D01*
X127831848Y-83555206D01*
X127833501Y-83550586D01*
X127835599Y-83546150D01*
X127838122Y-83541941D01*
X127841044Y-83538000D01*
X127844340Y-83534365D01*
X127915051Y-83463654D01*
X127918686Y-83460358D01*
X127922627Y-83457436D01*
X127926836Y-83454913D01*
X127931272Y-83452815D01*
X127935892Y-83451162D01*
X127940651Y-83449970D01*
X127945505Y-83449250D01*
X127950406Y-83449009D01*
X127955307Y-83449250D01*
G37*
G04 #@! TD.AperFunction*
G04 #@! TA.AperFunction,SMDPad,CuDef*
G36*
X127672464Y-83732093D02*
G01*
X127677318Y-83732813D01*
X127682077Y-83734005D01*
X127686697Y-83735658D01*
X127691133Y-83737756D01*
X127695342Y-83740279D01*
X127699283Y-83743201D01*
X127702918Y-83746497D01*
X128197893Y-84241472D01*
X128201189Y-84245107D01*
X128204111Y-84249048D01*
X128206634Y-84253257D01*
X128208732Y-84257693D01*
X128210385Y-84262313D01*
X128211577Y-84267072D01*
X128212297Y-84271926D01*
X128212538Y-84276827D01*
X128212297Y-84281728D01*
X128211577Y-84286582D01*
X128210385Y-84291341D01*
X128208732Y-84295961D01*
X128206634Y-84300397D01*
X128204111Y-84304606D01*
X128201189Y-84308547D01*
X128197893Y-84312182D01*
X128127182Y-84382893D01*
X128123547Y-84386189D01*
X128119606Y-84389111D01*
X128115397Y-84391634D01*
X128110961Y-84393732D01*
X128106341Y-84395385D01*
X128101582Y-84396577D01*
X128096728Y-84397297D01*
X128091827Y-84397538D01*
X128086926Y-84397297D01*
X128082072Y-84396577D01*
X128077313Y-84395385D01*
X128072693Y-84393732D01*
X128068257Y-84391634D01*
X128064048Y-84389111D01*
X128060107Y-84386189D01*
X128056472Y-84382893D01*
X127561497Y-83887918D01*
X127558201Y-83884283D01*
X127555279Y-83880342D01*
X127552756Y-83876133D01*
X127550658Y-83871697D01*
X127549005Y-83867077D01*
X127547813Y-83862318D01*
X127547093Y-83857464D01*
X127546852Y-83852563D01*
X127547093Y-83847662D01*
X127547813Y-83842808D01*
X127549005Y-83838049D01*
X127550658Y-83833429D01*
X127552756Y-83828993D01*
X127555279Y-83824784D01*
X127558201Y-83820843D01*
X127561497Y-83817208D01*
X127632208Y-83746497D01*
X127635843Y-83743201D01*
X127639784Y-83740279D01*
X127643993Y-83737756D01*
X127648429Y-83735658D01*
X127653049Y-83734005D01*
X127657808Y-83732813D01*
X127662662Y-83732093D01*
X127667563Y-83731852D01*
X127672464Y-83732093D01*
G37*
G04 #@! TD.AperFunction*
G04 #@! TA.AperFunction,SMDPad,CuDef*
G36*
X127389621Y-84014936D02*
G01*
X127394475Y-84015656D01*
X127399234Y-84016848D01*
X127403854Y-84018501D01*
X127408290Y-84020599D01*
X127412499Y-84023122D01*
X127416440Y-84026044D01*
X127420075Y-84029340D01*
X127915050Y-84524315D01*
X127918346Y-84527950D01*
X127921268Y-84531891D01*
X127923791Y-84536100D01*
X127925889Y-84540536D01*
X127927542Y-84545156D01*
X127928734Y-84549915D01*
X127929454Y-84554769D01*
X127929695Y-84559670D01*
X127929454Y-84564571D01*
X127928734Y-84569425D01*
X127927542Y-84574184D01*
X127925889Y-84578804D01*
X127923791Y-84583240D01*
X127921268Y-84587449D01*
X127918346Y-84591390D01*
X127915050Y-84595025D01*
X127844339Y-84665736D01*
X127840704Y-84669032D01*
X127836763Y-84671954D01*
X127832554Y-84674477D01*
X127828118Y-84676575D01*
X127823498Y-84678228D01*
X127818739Y-84679420D01*
X127813885Y-84680140D01*
X127808984Y-84680381D01*
X127804083Y-84680140D01*
X127799229Y-84679420D01*
X127794470Y-84678228D01*
X127789850Y-84676575D01*
X127785414Y-84674477D01*
X127781205Y-84671954D01*
X127777264Y-84669032D01*
X127773629Y-84665736D01*
X127278654Y-84170761D01*
X127275358Y-84167126D01*
X127272436Y-84163185D01*
X127269913Y-84158976D01*
X127267815Y-84154540D01*
X127266162Y-84149920D01*
X127264970Y-84145161D01*
X127264250Y-84140307D01*
X127264009Y-84135406D01*
X127264250Y-84130505D01*
X127264970Y-84125651D01*
X127266162Y-84120892D01*
X127267815Y-84116272D01*
X127269913Y-84111836D01*
X127272436Y-84107627D01*
X127275358Y-84103686D01*
X127278654Y-84100051D01*
X127349365Y-84029340D01*
X127353000Y-84026044D01*
X127356941Y-84023122D01*
X127361150Y-84020599D01*
X127365586Y-84018501D01*
X127370206Y-84016848D01*
X127374965Y-84015656D01*
X127379819Y-84014936D01*
X127384720Y-84014695D01*
X127389621Y-84014936D01*
G37*
G04 #@! TD.AperFunction*
G04 #@! TA.AperFunction,SMDPad,CuDef*
G36*
X127638426Y-84814735D02*
G01*
X127643047Y-84823379D01*
X127645892Y-84832759D01*
X127646852Y-84842513D01*
X127645892Y-84852267D01*
X127643047Y-84861647D01*
X127638426Y-84870291D01*
X127632208Y-84877868D01*
X127597355Y-84912721D01*
X127589778Y-84918939D01*
X127581134Y-84923559D01*
X127571754Y-84926405D01*
X127562000Y-84927365D01*
X127490284Y-84927365D01*
X127480530Y-84926405D01*
X127471150Y-84923559D01*
X127462506Y-84918939D01*
X127454929Y-84912721D01*
X126995812Y-84453604D01*
X126989594Y-84446027D01*
X126984973Y-84437383D01*
X126982128Y-84428003D01*
X126981168Y-84418249D01*
X126982128Y-84408495D01*
X126984973Y-84399115D01*
X126989594Y-84390471D01*
X126995812Y-84382894D01*
X127066523Y-84312183D01*
X127074100Y-84305965D01*
X127082744Y-84301344D01*
X127092124Y-84298499D01*
X127101878Y-84297539D01*
X127111632Y-84298499D01*
X127121012Y-84301344D01*
X127129656Y-84305965D01*
X127137233Y-84312183D01*
X127632208Y-84807158D01*
X127638426Y-84814735D01*
G37*
G04 #@! TD.AperFunction*
G04 #@! TA.AperFunction,SMDPad,CuDef*
G36*
X127638426Y-85309709D02*
G01*
X127643047Y-85318353D01*
X127645892Y-85327733D01*
X127646852Y-85337487D01*
X127645892Y-85347241D01*
X127643047Y-85356621D01*
X127638426Y-85365265D01*
X127632208Y-85372842D01*
X127137233Y-85867817D01*
X127129656Y-85874035D01*
X127121012Y-85878656D01*
X127111632Y-85881501D01*
X127101878Y-85882461D01*
X127092124Y-85881501D01*
X127082744Y-85878656D01*
X127074100Y-85874035D01*
X127066523Y-85867817D01*
X126995812Y-85797106D01*
X126989594Y-85789529D01*
X126984973Y-85780885D01*
X126982128Y-85771505D01*
X126981168Y-85761751D01*
X126982128Y-85751997D01*
X126984973Y-85742617D01*
X126989594Y-85733973D01*
X126995812Y-85726396D01*
X127454929Y-85267279D01*
X127462506Y-85261061D01*
X127471150Y-85256441D01*
X127480530Y-85253595D01*
X127490284Y-85252635D01*
X127562000Y-85252635D01*
X127571754Y-85253595D01*
X127581134Y-85256441D01*
X127589778Y-85261061D01*
X127597355Y-85267279D01*
X127632208Y-85302132D01*
X127638426Y-85309709D01*
G37*
G04 #@! TD.AperFunction*
G04 #@! TA.AperFunction,SMDPad,CuDef*
G36*
X127813885Y-85499860D02*
G01*
X127818739Y-85500580D01*
X127823498Y-85501772D01*
X127828118Y-85503425D01*
X127832554Y-85505523D01*
X127836763Y-85508046D01*
X127840704Y-85510968D01*
X127844339Y-85514264D01*
X127915050Y-85584975D01*
X127918346Y-85588610D01*
X127921268Y-85592551D01*
X127923791Y-85596760D01*
X127925889Y-85601196D01*
X127927542Y-85605816D01*
X127928734Y-85610575D01*
X127929454Y-85615429D01*
X127929695Y-85620330D01*
X127929454Y-85625231D01*
X127928734Y-85630085D01*
X127927542Y-85634844D01*
X127925889Y-85639464D01*
X127923791Y-85643900D01*
X127921268Y-85648109D01*
X127918346Y-85652050D01*
X127915050Y-85655685D01*
X127420075Y-86150660D01*
X127416440Y-86153956D01*
X127412499Y-86156878D01*
X127408290Y-86159401D01*
X127403854Y-86161499D01*
X127399234Y-86163152D01*
X127394475Y-86164344D01*
X127389621Y-86165064D01*
X127384720Y-86165305D01*
X127379819Y-86165064D01*
X127374965Y-86164344D01*
X127370206Y-86163152D01*
X127365586Y-86161499D01*
X127361150Y-86159401D01*
X127356941Y-86156878D01*
X127353000Y-86153956D01*
X127349365Y-86150660D01*
X127278654Y-86079949D01*
X127275358Y-86076314D01*
X127272436Y-86072373D01*
X127269913Y-86068164D01*
X127267815Y-86063728D01*
X127266162Y-86059108D01*
X127264970Y-86054349D01*
X127264250Y-86049495D01*
X127264009Y-86044594D01*
X127264250Y-86039693D01*
X127264970Y-86034839D01*
X127266162Y-86030080D01*
X127267815Y-86025460D01*
X127269913Y-86021024D01*
X127272436Y-86016815D01*
X127275358Y-86012874D01*
X127278654Y-86009239D01*
X127773629Y-85514264D01*
X127777264Y-85510968D01*
X127781205Y-85508046D01*
X127785414Y-85505523D01*
X127789850Y-85503425D01*
X127794470Y-85501772D01*
X127799229Y-85500580D01*
X127804083Y-85499860D01*
X127808984Y-85499619D01*
X127813885Y-85499860D01*
G37*
G04 #@! TD.AperFunction*
G04 #@! TA.AperFunction,SMDPad,CuDef*
G36*
X128096728Y-85782703D02*
G01*
X128101582Y-85783423D01*
X128106341Y-85784615D01*
X128110961Y-85786268D01*
X128115397Y-85788366D01*
X128119606Y-85790889D01*
X128123547Y-85793811D01*
X128127182Y-85797107D01*
X128197893Y-85867818D01*
X128201189Y-85871453D01*
X128204111Y-85875394D01*
X128206634Y-85879603D01*
X128208732Y-85884039D01*
X128210385Y-85888659D01*
X128211577Y-85893418D01*
X128212297Y-85898272D01*
X128212538Y-85903173D01*
X128212297Y-85908074D01*
X128211577Y-85912928D01*
X128210385Y-85917687D01*
X128208732Y-85922307D01*
X128206634Y-85926743D01*
X128204111Y-85930952D01*
X128201189Y-85934893D01*
X128197893Y-85938528D01*
X127702918Y-86433503D01*
X127699283Y-86436799D01*
X127695342Y-86439721D01*
X127691133Y-86442244D01*
X127686697Y-86444342D01*
X127682077Y-86445995D01*
X127677318Y-86447187D01*
X127672464Y-86447907D01*
X127667563Y-86448148D01*
X127662662Y-86447907D01*
X127657808Y-86447187D01*
X127653049Y-86445995D01*
X127648429Y-86444342D01*
X127643993Y-86442244D01*
X127639784Y-86439721D01*
X127635843Y-86436799D01*
X127632208Y-86433503D01*
X127561497Y-86362792D01*
X127558201Y-86359157D01*
X127555279Y-86355216D01*
X127552756Y-86351007D01*
X127550658Y-86346571D01*
X127549005Y-86341951D01*
X127547813Y-86337192D01*
X127547093Y-86332338D01*
X127546852Y-86327437D01*
X127547093Y-86322536D01*
X127547813Y-86317682D01*
X127549005Y-86312923D01*
X127550658Y-86308303D01*
X127552756Y-86303867D01*
X127555279Y-86299658D01*
X127558201Y-86295717D01*
X127561497Y-86292082D01*
X128056472Y-85797107D01*
X128060107Y-85793811D01*
X128064048Y-85790889D01*
X128068257Y-85788366D01*
X128072693Y-85786268D01*
X128077313Y-85784615D01*
X128082072Y-85783423D01*
X128086926Y-85782703D01*
X128091827Y-85782462D01*
X128096728Y-85782703D01*
G37*
G04 #@! TD.AperFunction*
G04 #@! TA.AperFunction,SMDPad,CuDef*
G36*
X128379571Y-86065546D02*
G01*
X128384425Y-86066266D01*
X128389184Y-86067458D01*
X128393804Y-86069111D01*
X128398240Y-86071209D01*
X128402449Y-86073732D01*
X128406390Y-86076654D01*
X128410025Y-86079950D01*
X128480736Y-86150661D01*
X128484032Y-86154296D01*
X128486954Y-86158237D01*
X128489477Y-86162446D01*
X128491575Y-86166882D01*
X128493228Y-86171502D01*
X128494420Y-86176261D01*
X128495140Y-86181115D01*
X128495381Y-86186016D01*
X128495140Y-86190917D01*
X128494420Y-86195771D01*
X128493228Y-86200530D01*
X128491575Y-86205150D01*
X128489477Y-86209586D01*
X128486954Y-86213795D01*
X128484032Y-86217736D01*
X128480736Y-86221371D01*
X127985761Y-86716346D01*
X127982126Y-86719642D01*
X127978185Y-86722564D01*
X127973976Y-86725087D01*
X127969540Y-86727185D01*
X127964920Y-86728838D01*
X127960161Y-86730030D01*
X127955307Y-86730750D01*
X127950406Y-86730991D01*
X127945505Y-86730750D01*
X127940651Y-86730030D01*
X127935892Y-86728838D01*
X127931272Y-86727185D01*
X127926836Y-86725087D01*
X127922627Y-86722564D01*
X127918686Y-86719642D01*
X127915051Y-86716346D01*
X127844340Y-86645635D01*
X127841044Y-86642000D01*
X127838122Y-86638059D01*
X127835599Y-86633850D01*
X127833501Y-86629414D01*
X127831848Y-86624794D01*
X127830656Y-86620035D01*
X127829936Y-86615181D01*
X127829695Y-86610280D01*
X127829936Y-86605379D01*
X127830656Y-86600525D01*
X127831848Y-86595766D01*
X127833501Y-86591146D01*
X127835599Y-86586710D01*
X127838122Y-86582501D01*
X127841044Y-86578560D01*
X127844340Y-86574925D01*
X128339315Y-86079950D01*
X128342950Y-86076654D01*
X128346891Y-86073732D01*
X128351100Y-86071209D01*
X128355536Y-86069111D01*
X128360156Y-86067458D01*
X128364915Y-86066266D01*
X128369769Y-86065546D01*
X128374670Y-86065305D01*
X128379571Y-86065546D01*
G37*
G04 #@! TD.AperFunction*
G04 #@! TA.AperFunction,SMDPad,CuDef*
G36*
X128733939Y-86405222D02*
G01*
X128738559Y-86413866D01*
X128741405Y-86423246D01*
X128742365Y-86433000D01*
X128742365Y-86504716D01*
X128741405Y-86514470D01*
X128738559Y-86523850D01*
X128733939Y-86532494D01*
X128727721Y-86540071D01*
X128268604Y-86999188D01*
X128261027Y-87005406D01*
X128252383Y-87010027D01*
X128243003Y-87012872D01*
X128233249Y-87013832D01*
X128223495Y-87012872D01*
X128214115Y-87010027D01*
X128205471Y-87005406D01*
X128197894Y-86999188D01*
X128127183Y-86928477D01*
X128120965Y-86920900D01*
X128116344Y-86912256D01*
X128113499Y-86902876D01*
X128112539Y-86893122D01*
X128113499Y-86883368D01*
X128116344Y-86873988D01*
X128120965Y-86865344D01*
X128127183Y-86857767D01*
X128622158Y-86362792D01*
X128629735Y-86356574D01*
X128638379Y-86351953D01*
X128647759Y-86349108D01*
X128657513Y-86348148D01*
X128667267Y-86349108D01*
X128676647Y-86351953D01*
X128685291Y-86356574D01*
X128692868Y-86362792D01*
X128727721Y-86397645D01*
X128733939Y-86405222D01*
G37*
G04 #@! TD.AperFunction*
G04 #@! TA.AperFunction,SMDPad,CuDef*
G36*
X129689035Y-86865344D02*
G01*
X129693656Y-86873988D01*
X129696501Y-86883368D01*
X129697461Y-86893122D01*
X129696501Y-86902876D01*
X129693656Y-86912256D01*
X129689035Y-86920900D01*
X129682817Y-86928477D01*
X129612106Y-86999188D01*
X129604529Y-87005406D01*
X129595885Y-87010027D01*
X129586505Y-87012872D01*
X129576751Y-87013832D01*
X129566997Y-87012872D01*
X129557617Y-87010027D01*
X129548973Y-87005406D01*
X129541396Y-86999188D01*
X129082279Y-86540071D01*
X129076061Y-86532494D01*
X129071441Y-86523850D01*
X129068595Y-86514470D01*
X129067635Y-86504716D01*
X129067635Y-86433000D01*
X129068595Y-86423246D01*
X129071441Y-86413866D01*
X129076061Y-86405222D01*
X129082279Y-86397645D01*
X129117132Y-86362792D01*
X129124709Y-86356574D01*
X129133353Y-86351953D01*
X129142733Y-86349108D01*
X129152487Y-86348148D01*
X129162241Y-86349108D01*
X129171621Y-86351953D01*
X129180265Y-86356574D01*
X129187842Y-86362792D01*
X129682817Y-86857767D01*
X129689035Y-86865344D01*
G37*
G04 #@! TD.AperFunction*
G04 #@! TA.AperFunction,SMDPad,CuDef*
G36*
X129440231Y-86065546D02*
G01*
X129445085Y-86066266D01*
X129449844Y-86067458D01*
X129454464Y-86069111D01*
X129458900Y-86071209D01*
X129463109Y-86073732D01*
X129467050Y-86076654D01*
X129470685Y-86079950D01*
X129965660Y-86574925D01*
X129968956Y-86578560D01*
X129971878Y-86582501D01*
X129974401Y-86586710D01*
X129976499Y-86591146D01*
X129978152Y-86595766D01*
X129979344Y-86600525D01*
X129980064Y-86605379D01*
X129980305Y-86610280D01*
X129980064Y-86615181D01*
X129979344Y-86620035D01*
X129978152Y-86624794D01*
X129976499Y-86629414D01*
X129974401Y-86633850D01*
X129971878Y-86638059D01*
X129968956Y-86642000D01*
X129965660Y-86645635D01*
X129894949Y-86716346D01*
X129891314Y-86719642D01*
X129887373Y-86722564D01*
X129883164Y-86725087D01*
X129878728Y-86727185D01*
X129874108Y-86728838D01*
X129869349Y-86730030D01*
X129864495Y-86730750D01*
X129859594Y-86730991D01*
X129854693Y-86730750D01*
X129849839Y-86730030D01*
X129845080Y-86728838D01*
X129840460Y-86727185D01*
X129836024Y-86725087D01*
X129831815Y-86722564D01*
X129827874Y-86719642D01*
X129824239Y-86716346D01*
X129329264Y-86221371D01*
X129325968Y-86217736D01*
X129323046Y-86213795D01*
X129320523Y-86209586D01*
X129318425Y-86205150D01*
X129316772Y-86200530D01*
X129315580Y-86195771D01*
X129314860Y-86190917D01*
X129314619Y-86186016D01*
X129314860Y-86181115D01*
X129315580Y-86176261D01*
X129316772Y-86171502D01*
X129318425Y-86166882D01*
X129320523Y-86162446D01*
X129323046Y-86158237D01*
X129325968Y-86154296D01*
X129329264Y-86150661D01*
X129399975Y-86079950D01*
X129403610Y-86076654D01*
X129407551Y-86073732D01*
X129411760Y-86071209D01*
X129416196Y-86069111D01*
X129420816Y-86067458D01*
X129425575Y-86066266D01*
X129430429Y-86065546D01*
X129435330Y-86065305D01*
X129440231Y-86065546D01*
G37*
G04 #@! TD.AperFunction*
G04 #@! TA.AperFunction,SMDPad,CuDef*
G36*
X129723074Y-85782703D02*
G01*
X129727928Y-85783423D01*
X129732687Y-85784615D01*
X129737307Y-85786268D01*
X129741743Y-85788366D01*
X129745952Y-85790889D01*
X129749893Y-85793811D01*
X129753528Y-85797107D01*
X130248503Y-86292082D01*
X130251799Y-86295717D01*
X130254721Y-86299658D01*
X130257244Y-86303867D01*
X130259342Y-86308303D01*
X130260995Y-86312923D01*
X130262187Y-86317682D01*
X130262907Y-86322536D01*
X130263148Y-86327437D01*
X130262907Y-86332338D01*
X130262187Y-86337192D01*
X130260995Y-86341951D01*
X130259342Y-86346571D01*
X130257244Y-86351007D01*
X130254721Y-86355216D01*
X130251799Y-86359157D01*
X130248503Y-86362792D01*
X130177792Y-86433503D01*
X130174157Y-86436799D01*
X130170216Y-86439721D01*
X130166007Y-86442244D01*
X130161571Y-86444342D01*
X130156951Y-86445995D01*
X130152192Y-86447187D01*
X130147338Y-86447907D01*
X130142437Y-86448148D01*
X130137536Y-86447907D01*
X130132682Y-86447187D01*
X130127923Y-86445995D01*
X130123303Y-86444342D01*
X130118867Y-86442244D01*
X130114658Y-86439721D01*
X130110717Y-86436799D01*
X130107082Y-86433503D01*
X129612107Y-85938528D01*
X129608811Y-85934893D01*
X129605889Y-85930952D01*
X129603366Y-85926743D01*
X129601268Y-85922307D01*
X129599615Y-85917687D01*
X129598423Y-85912928D01*
X129597703Y-85908074D01*
X129597462Y-85903173D01*
X129597703Y-85898272D01*
X129598423Y-85893418D01*
X129599615Y-85888659D01*
X129601268Y-85884039D01*
X129603366Y-85879603D01*
X129605889Y-85875394D01*
X129608811Y-85871453D01*
X129612107Y-85867818D01*
X129682818Y-85797107D01*
X129686453Y-85793811D01*
X129690394Y-85790889D01*
X129694603Y-85788366D01*
X129699039Y-85786268D01*
X129703659Y-85784615D01*
X129708418Y-85783423D01*
X129713272Y-85782703D01*
X129718173Y-85782462D01*
X129723074Y-85782703D01*
G37*
G04 #@! TD.AperFunction*
G04 #@! TA.AperFunction,SMDPad,CuDef*
G36*
X130005917Y-85499860D02*
G01*
X130010771Y-85500580D01*
X130015530Y-85501772D01*
X130020150Y-85503425D01*
X130024586Y-85505523D01*
X130028795Y-85508046D01*
X130032736Y-85510968D01*
X130036371Y-85514264D01*
X130531346Y-86009239D01*
X130534642Y-86012874D01*
X130537564Y-86016815D01*
X130540087Y-86021024D01*
X130542185Y-86025460D01*
X130543838Y-86030080D01*
X130545030Y-86034839D01*
X130545750Y-86039693D01*
X130545991Y-86044594D01*
X130545750Y-86049495D01*
X130545030Y-86054349D01*
X130543838Y-86059108D01*
X130542185Y-86063728D01*
X130540087Y-86068164D01*
X130537564Y-86072373D01*
X130534642Y-86076314D01*
X130531346Y-86079949D01*
X130460635Y-86150660D01*
X130457000Y-86153956D01*
X130453059Y-86156878D01*
X130448850Y-86159401D01*
X130444414Y-86161499D01*
X130439794Y-86163152D01*
X130435035Y-86164344D01*
X130430181Y-86165064D01*
X130425280Y-86165305D01*
X130420379Y-86165064D01*
X130415525Y-86164344D01*
X130410766Y-86163152D01*
X130406146Y-86161499D01*
X130401710Y-86159401D01*
X130397501Y-86156878D01*
X130393560Y-86153956D01*
X130389925Y-86150660D01*
X129894950Y-85655685D01*
X129891654Y-85652050D01*
X129888732Y-85648109D01*
X129886209Y-85643900D01*
X129884111Y-85639464D01*
X129882458Y-85634844D01*
X129881266Y-85630085D01*
X129880546Y-85625231D01*
X129880305Y-85620330D01*
X129880546Y-85615429D01*
X129881266Y-85610575D01*
X129882458Y-85605816D01*
X129884111Y-85601196D01*
X129886209Y-85596760D01*
X129888732Y-85592551D01*
X129891654Y-85588610D01*
X129894950Y-85584975D01*
X129965661Y-85514264D01*
X129969296Y-85510968D01*
X129973237Y-85508046D01*
X129977446Y-85505523D01*
X129981882Y-85503425D01*
X129986502Y-85501772D01*
X129991261Y-85500580D01*
X129996115Y-85499860D01*
X130001016Y-85499619D01*
X130005917Y-85499860D01*
G37*
G04 #@! TD.AperFunction*
G04 #@! TA.AperFunction,SMDPad,CuDef*
G36*
X130820406Y-85733973D02*
G01*
X130825027Y-85742617D01*
X130827872Y-85751997D01*
X130828832Y-85761751D01*
X130827872Y-85771505D01*
X130825027Y-85780885D01*
X130820406Y-85789529D01*
X130814188Y-85797106D01*
X130743477Y-85867817D01*
X130735900Y-85874035D01*
X130727256Y-85878656D01*
X130717876Y-85881501D01*
X130708122Y-85882461D01*
X130698368Y-85881501D01*
X130688988Y-85878656D01*
X130680344Y-85874035D01*
X130672767Y-85867817D01*
X130177792Y-85372842D01*
X130171574Y-85365265D01*
X130166953Y-85356621D01*
X130164108Y-85347241D01*
X130163148Y-85337487D01*
X130164108Y-85327733D01*
X130166953Y-85318353D01*
X130171574Y-85309709D01*
X130177792Y-85302132D01*
X130212645Y-85267279D01*
X130220222Y-85261061D01*
X130228866Y-85256441D01*
X130238246Y-85253595D01*
X130248000Y-85252635D01*
X130319716Y-85252635D01*
X130329470Y-85253595D01*
X130338850Y-85256441D01*
X130347494Y-85261061D01*
X130355071Y-85267279D01*
X130814188Y-85726396D01*
X130820406Y-85733973D01*
G37*
G04 #@! TD.AperFunction*
G04 #@! TA.AperFunction,SMDPad,CuDef*
G36*
X130820406Y-84390471D02*
G01*
X130825027Y-84399115D01*
X130827872Y-84408495D01*
X130828832Y-84418249D01*
X130827872Y-84428003D01*
X130825027Y-84437383D01*
X130820406Y-84446027D01*
X130814188Y-84453604D01*
X130355071Y-84912721D01*
X130347494Y-84918939D01*
X130338850Y-84923559D01*
X130329470Y-84926405D01*
X130319716Y-84927365D01*
X130248000Y-84927365D01*
X130238246Y-84926405D01*
X130228866Y-84923559D01*
X130220222Y-84918939D01*
X130212645Y-84912721D01*
X130177792Y-84877868D01*
X130171574Y-84870291D01*
X130166953Y-84861647D01*
X130164108Y-84852267D01*
X130163148Y-84842513D01*
X130164108Y-84832759D01*
X130166953Y-84823379D01*
X130171574Y-84814735D01*
X130177792Y-84807158D01*
X130672767Y-84312183D01*
X130680344Y-84305965D01*
X130688988Y-84301344D01*
X130698368Y-84298499D01*
X130708122Y-84297539D01*
X130717876Y-84298499D01*
X130727256Y-84301344D01*
X130735900Y-84305965D01*
X130743477Y-84312183D01*
X130814188Y-84382894D01*
X130820406Y-84390471D01*
G37*
G04 #@! TD.AperFunction*
G04 #@! TA.AperFunction,SMDPad,CuDef*
G36*
X130430181Y-84014936D02*
G01*
X130435035Y-84015656D01*
X130439794Y-84016848D01*
X130444414Y-84018501D01*
X130448850Y-84020599D01*
X130453059Y-84023122D01*
X130457000Y-84026044D01*
X130460635Y-84029340D01*
X130531346Y-84100051D01*
X130534642Y-84103686D01*
X130537564Y-84107627D01*
X130540087Y-84111836D01*
X130542185Y-84116272D01*
X130543838Y-84120892D01*
X130545030Y-84125651D01*
X130545750Y-84130505D01*
X130545991Y-84135406D01*
X130545750Y-84140307D01*
X130545030Y-84145161D01*
X130543838Y-84149920D01*
X130542185Y-84154540D01*
X130540087Y-84158976D01*
X130537564Y-84163185D01*
X130534642Y-84167126D01*
X130531346Y-84170761D01*
X130036371Y-84665736D01*
X130032736Y-84669032D01*
X130028795Y-84671954D01*
X130024586Y-84674477D01*
X130020150Y-84676575D01*
X130015530Y-84678228D01*
X130010771Y-84679420D01*
X130005917Y-84680140D01*
X130001016Y-84680381D01*
X129996115Y-84680140D01*
X129991261Y-84679420D01*
X129986502Y-84678228D01*
X129981882Y-84676575D01*
X129977446Y-84674477D01*
X129973237Y-84671954D01*
X129969296Y-84669032D01*
X129965661Y-84665736D01*
X129894950Y-84595025D01*
X129891654Y-84591390D01*
X129888732Y-84587449D01*
X129886209Y-84583240D01*
X129884111Y-84578804D01*
X129882458Y-84574184D01*
X129881266Y-84569425D01*
X129880546Y-84564571D01*
X129880305Y-84559670D01*
X129880546Y-84554769D01*
X129881266Y-84549915D01*
X129882458Y-84545156D01*
X129884111Y-84540536D01*
X129886209Y-84536100D01*
X129888732Y-84531891D01*
X129891654Y-84527950D01*
X129894950Y-84524315D01*
X130389925Y-84029340D01*
X130393560Y-84026044D01*
X130397501Y-84023122D01*
X130401710Y-84020599D01*
X130406146Y-84018501D01*
X130410766Y-84016848D01*
X130415525Y-84015656D01*
X130420379Y-84014936D01*
X130425280Y-84014695D01*
X130430181Y-84014936D01*
G37*
G04 #@! TD.AperFunction*
G04 #@! TA.AperFunction,SMDPad,CuDef*
G36*
X130147338Y-83732093D02*
G01*
X130152192Y-83732813D01*
X130156951Y-83734005D01*
X130161571Y-83735658D01*
X130166007Y-83737756D01*
X130170216Y-83740279D01*
X130174157Y-83743201D01*
X130177792Y-83746497D01*
X130248503Y-83817208D01*
X130251799Y-83820843D01*
X130254721Y-83824784D01*
X130257244Y-83828993D01*
X130259342Y-83833429D01*
X130260995Y-83838049D01*
X130262187Y-83842808D01*
X130262907Y-83847662D01*
X130263148Y-83852563D01*
X130262907Y-83857464D01*
X130262187Y-83862318D01*
X130260995Y-83867077D01*
X130259342Y-83871697D01*
X130257244Y-83876133D01*
X130254721Y-83880342D01*
X130251799Y-83884283D01*
X130248503Y-83887918D01*
X129753528Y-84382893D01*
X129749893Y-84386189D01*
X129745952Y-84389111D01*
X129741743Y-84391634D01*
X129737307Y-84393732D01*
X129732687Y-84395385D01*
X129727928Y-84396577D01*
X129723074Y-84397297D01*
X129718173Y-84397538D01*
X129713272Y-84397297D01*
X129708418Y-84396577D01*
X129703659Y-84395385D01*
X129699039Y-84393732D01*
X129694603Y-84391634D01*
X129690394Y-84389111D01*
X129686453Y-84386189D01*
X129682818Y-84382893D01*
X129612107Y-84312182D01*
X129608811Y-84308547D01*
X129605889Y-84304606D01*
X129603366Y-84300397D01*
X129601268Y-84295961D01*
X129599615Y-84291341D01*
X129598423Y-84286582D01*
X129597703Y-84281728D01*
X129597462Y-84276827D01*
X129597703Y-84271926D01*
X129598423Y-84267072D01*
X129599615Y-84262313D01*
X129601268Y-84257693D01*
X129603366Y-84253257D01*
X129605889Y-84249048D01*
X129608811Y-84245107D01*
X129612107Y-84241472D01*
X130107082Y-83746497D01*
X130110717Y-83743201D01*
X130114658Y-83740279D01*
X130118867Y-83737756D01*
X130123303Y-83735658D01*
X130127923Y-83734005D01*
X130132682Y-83732813D01*
X130137536Y-83732093D01*
X130142437Y-83731852D01*
X130147338Y-83732093D01*
G37*
G04 #@! TD.AperFunction*
G04 #@! TA.AperFunction,SMDPad,CuDef*
G36*
X129864495Y-83449250D02*
G01*
X129869349Y-83449970D01*
X129874108Y-83451162D01*
X129878728Y-83452815D01*
X129883164Y-83454913D01*
X129887373Y-83457436D01*
X129891314Y-83460358D01*
X129894949Y-83463654D01*
X129965660Y-83534365D01*
X129968956Y-83538000D01*
X129971878Y-83541941D01*
X129974401Y-83546150D01*
X129976499Y-83550586D01*
X129978152Y-83555206D01*
X129979344Y-83559965D01*
X129980064Y-83564819D01*
X129980305Y-83569720D01*
X129980064Y-83574621D01*
X129979344Y-83579475D01*
X129978152Y-83584234D01*
X129976499Y-83588854D01*
X129974401Y-83593290D01*
X129971878Y-83597499D01*
X129968956Y-83601440D01*
X129965660Y-83605075D01*
X129470685Y-84100050D01*
X129467050Y-84103346D01*
X129463109Y-84106268D01*
X129458900Y-84108791D01*
X129454464Y-84110889D01*
X129449844Y-84112542D01*
X129445085Y-84113734D01*
X129440231Y-84114454D01*
X129435330Y-84114695D01*
X129430429Y-84114454D01*
X129425575Y-84113734D01*
X129420816Y-84112542D01*
X129416196Y-84110889D01*
X129411760Y-84108791D01*
X129407551Y-84106268D01*
X129403610Y-84103346D01*
X129399975Y-84100050D01*
X129329264Y-84029339D01*
X129325968Y-84025704D01*
X129323046Y-84021763D01*
X129320523Y-84017554D01*
X129318425Y-84013118D01*
X129316772Y-84008498D01*
X129315580Y-84003739D01*
X129314860Y-83998885D01*
X129314619Y-83993984D01*
X129314860Y-83989083D01*
X129315580Y-83984229D01*
X129316772Y-83979470D01*
X129318425Y-83974850D01*
X129320523Y-83970414D01*
X129323046Y-83966205D01*
X129325968Y-83962264D01*
X129329264Y-83958629D01*
X129824239Y-83463654D01*
X129827874Y-83460358D01*
X129831815Y-83457436D01*
X129836024Y-83454913D01*
X129840460Y-83452815D01*
X129845080Y-83451162D01*
X129849839Y-83449970D01*
X129854693Y-83449250D01*
X129859594Y-83449009D01*
X129864495Y-83449250D01*
G37*
G04 #@! TD.AperFunction*
G04 #@! TA.AperFunction,SMDPad,CuDef*
G36*
X129689035Y-83259100D02*
G01*
X129693656Y-83267744D01*
X129696501Y-83277124D01*
X129697461Y-83286878D01*
X129696501Y-83296632D01*
X129693656Y-83306012D01*
X129689035Y-83314656D01*
X129682817Y-83322233D01*
X129187842Y-83817208D01*
X129180265Y-83823426D01*
X129171621Y-83828047D01*
X129162241Y-83830892D01*
X129152487Y-83831852D01*
X129142733Y-83830892D01*
X129133353Y-83828047D01*
X129124709Y-83823426D01*
X129117132Y-83817208D01*
X129082279Y-83782355D01*
X129076061Y-83774778D01*
X129071441Y-83766134D01*
X129068595Y-83756754D01*
X129067635Y-83747000D01*
X129067635Y-83675284D01*
X129068595Y-83665530D01*
X129071441Y-83656150D01*
X129076061Y-83647506D01*
X129082279Y-83639929D01*
X129541396Y-83180812D01*
X129548973Y-83174594D01*
X129557617Y-83169973D01*
X129566997Y-83167128D01*
X129576751Y-83166168D01*
X129586505Y-83167128D01*
X129595885Y-83169973D01*
X129604529Y-83174594D01*
X129612106Y-83180812D01*
X129682817Y-83251523D01*
X129689035Y-83259100D01*
G37*
G04 #@! TD.AperFunction*
D13*
X128905000Y-85064600D03*
X126619000Y-77520800D03*
X126923800Y-82372200D03*
D14*
X125286800Y-80580200D02*
X124968000Y-80899000D01*
X126873000Y-80580200D02*
X125286800Y-80580200D01*
D15*
X127050800Y-83820000D02*
X127596852Y-84347538D01*
D14*
X126161800Y-82956400D02*
X127050800Y-83820000D01*
X126161800Y-81635600D02*
X126161800Y-82956400D01*
X126873000Y-81280000D02*
X126161800Y-81635600D01*
X126873000Y-80580200D02*
X126873000Y-81280000D01*
X126873000Y-78830200D02*
X126873000Y-77774800D01*
X126873000Y-77774800D02*
X126619000Y-77520800D01*
D15*
X127304799Y-83489799D02*
X127879695Y-84064695D01*
X127304799Y-83184999D02*
X127304799Y-83489799D01*
X126923800Y-82372200D02*
X127304799Y-83184999D01*
X124968000Y-73279000D02*
X124968000Y-73482200D01*
X124968000Y-73482200D02*
X128600200Y-77114400D01*
X128600200Y-77114400D02*
X128600200Y-81686400D01*
X128600200Y-81686400D02*
X128009620Y-82276980D01*
X128009620Y-83063249D02*
X128445381Y-83499010D01*
X128009620Y-82276980D02*
X128009620Y-83063249D01*
X128162538Y-83748211D02*
X128162538Y-83781852D01*
X127736600Y-83362800D02*
X128162538Y-83748211D01*
X127660400Y-83261200D02*
X127736600Y-83362800D01*
X128168400Y-81530810D02*
X127657210Y-82042000D01*
X127657210Y-83209222D02*
X127660400Y-83261200D01*
X127657210Y-82042000D02*
X127657210Y-83209222D01*
X126099370Y-75819000D02*
X128168400Y-77888030D01*
X128168400Y-77888030D02*
X128168400Y-81530810D01*
X124968000Y-75819000D02*
X126099370Y-75819000D01*
X126873000Y-84201000D02*
X127314010Y-84630381D01*
X124968000Y-83439000D02*
X126873000Y-84201000D01*
X126884629Y-85979000D02*
X127314010Y-85549619D01*
X124968000Y-85979000D02*
X126884629Y-85979000D01*
X125767999Y-87661315D02*
X127596852Y-85832462D01*
X124968000Y-88519000D02*
X125767999Y-87661315D01*
X127101600Y-86918800D02*
X127879695Y-86115305D01*
X126644400Y-87376000D02*
X127101600Y-86918800D01*
X126619000Y-89433400D02*
X126644400Y-87376000D01*
X124968000Y-91059000D02*
X126619000Y-89433400D01*
X128162538Y-86398148D02*
X127203200Y-87357486D01*
X127203200Y-91363800D02*
X124968000Y-93599000D01*
X127203200Y-87357486D02*
X127203200Y-91363800D01*
X127812800Y-87313571D02*
X128445381Y-86680990D01*
X127812800Y-93294200D02*
X127812800Y-87313571D01*
X124968000Y-96139000D02*
X127812800Y-93294200D01*
X132588000Y-96139000D02*
X132588000Y-95910400D01*
X132588000Y-95910400D02*
X129997200Y-93319600D01*
X129997200Y-87313571D02*
X129364619Y-86680990D01*
X129997200Y-93319600D02*
X129997200Y-87313571D01*
X132588000Y-93599000D02*
X132588000Y-93268800D01*
X132588000Y-93268800D02*
X130556000Y-91236800D01*
X130556000Y-87306686D02*
X129647462Y-86398148D01*
X130556000Y-91236800D02*
X130556000Y-87306686D01*
X132588000Y-91059000D02*
X132588000Y-90728800D01*
X132588000Y-90728800D02*
X131064000Y-89204800D01*
X131064000Y-87249000D02*
X129930305Y-86115305D01*
X131064000Y-89204800D02*
X131064000Y-87249000D01*
X132588000Y-88207314D02*
X130213148Y-85832462D01*
X132588000Y-88519000D02*
X132588000Y-88207314D01*
X130925371Y-85979000D02*
X130495990Y-85549619D01*
X132588000Y-85979000D02*
X130925371Y-85979000D01*
X131687371Y-83439000D02*
X130495990Y-84630381D01*
X132588000Y-83439000D02*
X131687371Y-83439000D01*
X132588000Y-80899000D02*
X132588000Y-81381600D01*
X132588000Y-81381600D02*
X131419600Y-82550000D01*
X131419600Y-83141086D02*
X130213148Y-84347538D01*
X131419600Y-82550000D02*
X131419600Y-83141086D01*
X132588000Y-78359000D02*
X132410200Y-78359000D01*
X132410200Y-78359000D02*
X131064000Y-79705200D01*
X131064000Y-82931000D02*
X129930305Y-84064695D01*
X131064000Y-79705200D02*
X131064000Y-82931000D01*
X132588000Y-75819000D02*
X132156200Y-75819000D01*
X132156200Y-75819000D02*
X130708400Y-77266800D01*
X130708400Y-82720914D02*
X129647462Y-83781852D01*
X130708400Y-77266800D02*
X130708400Y-82720914D01*
X132588000Y-73279000D02*
X131648200Y-73279000D01*
X131648200Y-73279000D02*
X130251200Y-74676000D01*
X130251200Y-82612429D02*
X129364619Y-83499010D01*
X130251200Y-74676000D02*
X130251200Y-82612429D01*
M02*
