G04 #@! TF.GenerationSoftware,KiCad,Pcbnew,5.1.5+dfsg1-2build2*
G04 #@! TF.CreationDate,2020-11-03T02:55:08+01:00*
G04 #@! TF.ProjectId,VQFN20-P0.4mm-to-PDIP20-adapter,5651464e-3230-42d5-9030-2e346d6d2d74,rev?*
G04 #@! TF.SameCoordinates,Original*
G04 #@! TF.FileFunction,Legend,Bot*
G04 #@! TF.FilePolarity,Positive*
%FSLAX46Y46*%
G04 Gerber Fmt 4.6, Leading zero omitted, Abs format (unit mm)*
G04 Created by KiCad (PCBNEW 5.1.5+dfsg1-2build2) date 2020-11-03 02:55:08*
%MOMM*%
%LPD*%
G04 APERTURE LIST*
%ADD10C,0.300000*%
G04 APERTURE END LIST*
D10*
X128714785Y-74832714D02*
X129929071Y-74832714D01*
X130071928Y-74761285D01*
X130143356Y-74689857D01*
X130214785Y-74547000D01*
X130214785Y-74332714D01*
X130143356Y-74189857D01*
X129643356Y-74832714D02*
X129714785Y-74689857D01*
X129714785Y-74404142D01*
X129643356Y-74261285D01*
X129571928Y-74189857D01*
X129429071Y-74118428D01*
X129000499Y-74118428D01*
X128857642Y-74189857D01*
X128786214Y-74261285D01*
X128714785Y-74404142D01*
X128714785Y-74689857D01*
X128786214Y-74832714D01*
X129714785Y-75547000D02*
X128714785Y-75547000D01*
X128214785Y-75547000D02*
X128286214Y-75475571D01*
X128357642Y-75547000D01*
X128286214Y-75618428D01*
X128214785Y-75547000D01*
X128357642Y-75547000D01*
X128714785Y-76047000D02*
X128714785Y-76618428D01*
X128214785Y-76261285D02*
X129500499Y-76261285D01*
X129643356Y-76332714D01*
X129714785Y-76475571D01*
X129714785Y-76618428D01*
X129714785Y-77118428D02*
X128214785Y-77118428D01*
X129714785Y-77761285D02*
X128929071Y-77761285D01*
X128786214Y-77689857D01*
X128714785Y-77547000D01*
X128714785Y-77332714D01*
X128786214Y-77189857D01*
X128857642Y-77118428D01*
X128714785Y-79118428D02*
X129714785Y-79118428D01*
X128714785Y-78475571D02*
X129500499Y-78475571D01*
X129643356Y-78547000D01*
X129714785Y-78689857D01*
X129714785Y-78904142D01*
X129643356Y-79047000D01*
X129571928Y-79118428D01*
X129714785Y-79832714D02*
X128214785Y-79832714D01*
X128786214Y-79832714D02*
X128714785Y-79975571D01*
X128714785Y-80261285D01*
X128786214Y-80404142D01*
X128857642Y-80475571D01*
X129000499Y-80547000D01*
X129429071Y-80547000D01*
X129571928Y-80475571D01*
X129643356Y-80404142D01*
X129714785Y-80261285D01*
X129714785Y-79975571D01*
X129643356Y-79832714D01*
X129571928Y-81189857D02*
X129643356Y-81261285D01*
X129714785Y-81189857D01*
X129643356Y-81118428D01*
X129571928Y-81189857D01*
X129714785Y-81189857D01*
X129643356Y-82547000D02*
X129714785Y-82404142D01*
X129714785Y-82118428D01*
X129643356Y-81975571D01*
X129571928Y-81904142D01*
X129429071Y-81832714D01*
X129000499Y-81832714D01*
X128857642Y-81904142D01*
X128786214Y-81975571D01*
X128714785Y-82118428D01*
X128714785Y-82404142D01*
X128786214Y-82547000D01*
X129714785Y-83404142D02*
X129643356Y-83261285D01*
X129571928Y-83189857D01*
X129429071Y-83118428D01*
X129000499Y-83118428D01*
X128857642Y-83189857D01*
X128786214Y-83261285D01*
X128714785Y-83404142D01*
X128714785Y-83618428D01*
X128786214Y-83761285D01*
X128857642Y-83832714D01*
X129000499Y-83904142D01*
X129429071Y-83904142D01*
X129571928Y-83832714D01*
X129643356Y-83761285D01*
X129714785Y-83618428D01*
X129714785Y-83404142D01*
X129714785Y-84547000D02*
X128714785Y-84547000D01*
X128857642Y-84547000D02*
X128786214Y-84618428D01*
X128714785Y-84761285D01*
X128714785Y-84975571D01*
X128786214Y-85118428D01*
X128929071Y-85189857D01*
X129714785Y-85189857D01*
X128929071Y-85189857D02*
X128786214Y-85261285D01*
X128714785Y-85404142D01*
X128714785Y-85618428D01*
X128786214Y-85761285D01*
X128929071Y-85832714D01*
X129714785Y-85832714D01*
X128143356Y-87618428D02*
X130071928Y-86332714D01*
X129714785Y-88118428D02*
X128214785Y-88118428D01*
X128786214Y-88118428D02*
X128714785Y-88261285D01*
X128714785Y-88547000D01*
X128786214Y-88689857D01*
X128857642Y-88761285D01*
X129000499Y-88832714D01*
X129429071Y-88832714D01*
X129571928Y-88761285D01*
X129643356Y-88689857D01*
X129714785Y-88547000D01*
X129714785Y-88261285D01*
X129643356Y-88118428D01*
X128714785Y-89332714D02*
X129714785Y-89618428D01*
X129000499Y-89904142D01*
X129714785Y-90189857D01*
X128714785Y-90475571D01*
X129714785Y-91689857D02*
X128929071Y-91689857D01*
X128786214Y-91618428D01*
X128714785Y-91475571D01*
X128714785Y-91189857D01*
X128786214Y-91047000D01*
X129643356Y-91689857D02*
X129714785Y-91547000D01*
X129714785Y-91189857D01*
X129643356Y-91047000D01*
X129500499Y-90975571D01*
X129357642Y-90975571D01*
X129214785Y-91047000D01*
X129143356Y-91189857D01*
X129143356Y-91547000D01*
X129071928Y-91689857D01*
X129643356Y-93047000D02*
X129714785Y-92904142D01*
X129714785Y-92618428D01*
X129643356Y-92475571D01*
X129571928Y-92404142D01*
X129429071Y-92332714D01*
X129000499Y-92332714D01*
X128857642Y-92404142D01*
X128786214Y-92475571D01*
X128714785Y-92618428D01*
X128714785Y-92904142D01*
X128786214Y-93047000D01*
X129714785Y-93689857D02*
X128214785Y-93689857D01*
X129143356Y-93832714D02*
X129714785Y-94261285D01*
X128714785Y-94261285D02*
X129286214Y-93689857D01*
M02*
