M48
; DRILL file {KiCad 5.1.5+dfsg1-2build2} date ti. 03. nov. 2020 kl. 02.55 +0100
; FORMAT={-:-/ absolute / inch / decimal}
; #@! TF.CreationDate,2020-11-03T02:55:12+01:00
; #@! TF.GenerationSoftware,Kicad,Pcbnew,5.1.5+dfsg1-2build2
FMAT,2
INCH
T1C0.0157
T2C0.0315
%
G90
G05
T1
X4.985Y-3.052
X4.997Y-3.243
X5.075Y-3.349
T2
X4.92Y-2.885
X4.92Y-2.985
X4.92Y-3.085
X4.92Y-3.185
X4.92Y-3.285
X4.92Y-3.385
X4.92Y-3.485
X4.92Y-3.585
X4.92Y-3.685
X4.92Y-3.785
X5.22Y-2.885
X5.22Y-2.985
X5.22Y-3.085
X5.22Y-3.185
X5.22Y-3.285
X5.22Y-3.385
X5.22Y-3.485
X5.22Y-3.585
X5.22Y-3.685
X5.22Y-3.785
T0
M30
