G04 #@! TF.GenerationSoftware,KiCad,Pcbnew,5.1.5+dfsg1-2build2*
G04 #@! TF.CreationDate,2020-11-03T02:55:08+01:00*
G04 #@! TF.ProjectId,VQFN20-P0.4mm-to-PDIP20-adapter,5651464e-3230-42d5-9030-2e346d6d2d74,rev?*
G04 #@! TF.SameCoordinates,Original*
G04 #@! TF.FileFunction,Soldermask,Bot*
G04 #@! TF.FilePolarity,Negative*
%FSLAX46Y46*%
G04 Gerber Fmt 4.6, Leading zero omitted, Abs format (unit mm)*
G04 Created by KiCad (PCBNEW 5.1.5+dfsg1-2build2) date 2020-11-03 02:55:08*
%MOMM*%
%LPD*%
G04 APERTURE LIST*
%ADD10C,0.100000*%
G04 APERTURE END LIST*
D10*
G36*
X132836228Y-95320703D02*
G01*
X132991100Y-95384853D01*
X133130481Y-95477985D01*
X133249015Y-95596519D01*
X133342147Y-95735900D01*
X133406297Y-95890772D01*
X133439000Y-96055184D01*
X133439000Y-96222816D01*
X133406297Y-96387228D01*
X133342147Y-96542100D01*
X133249015Y-96681481D01*
X133130481Y-96800015D01*
X132991100Y-96893147D01*
X132836228Y-96957297D01*
X132671816Y-96990000D01*
X132504184Y-96990000D01*
X132339772Y-96957297D01*
X132184900Y-96893147D01*
X132045519Y-96800015D01*
X131926985Y-96681481D01*
X131833853Y-96542100D01*
X131769703Y-96387228D01*
X131737000Y-96222816D01*
X131737000Y-96055184D01*
X131769703Y-95890772D01*
X131833853Y-95735900D01*
X131926985Y-95596519D01*
X132045519Y-95477985D01*
X132184900Y-95384853D01*
X132339772Y-95320703D01*
X132504184Y-95288000D01*
X132671816Y-95288000D01*
X132836228Y-95320703D01*
G37*
G36*
X125216228Y-95320703D02*
G01*
X125371100Y-95384853D01*
X125510481Y-95477985D01*
X125629015Y-95596519D01*
X125722147Y-95735900D01*
X125786297Y-95890772D01*
X125819000Y-96055184D01*
X125819000Y-96222816D01*
X125786297Y-96387228D01*
X125722147Y-96542100D01*
X125629015Y-96681481D01*
X125510481Y-96800015D01*
X125371100Y-96893147D01*
X125216228Y-96957297D01*
X125051816Y-96990000D01*
X124884184Y-96990000D01*
X124719772Y-96957297D01*
X124564900Y-96893147D01*
X124425519Y-96800015D01*
X124306985Y-96681481D01*
X124213853Y-96542100D01*
X124149703Y-96387228D01*
X124117000Y-96222816D01*
X124117000Y-96055184D01*
X124149703Y-95890772D01*
X124213853Y-95735900D01*
X124306985Y-95596519D01*
X124425519Y-95477985D01*
X124564900Y-95384853D01*
X124719772Y-95320703D01*
X124884184Y-95288000D01*
X125051816Y-95288000D01*
X125216228Y-95320703D01*
G37*
G36*
X132836228Y-92780703D02*
G01*
X132991100Y-92844853D01*
X133130481Y-92937985D01*
X133249015Y-93056519D01*
X133342147Y-93195900D01*
X133406297Y-93350772D01*
X133439000Y-93515184D01*
X133439000Y-93682816D01*
X133406297Y-93847228D01*
X133342147Y-94002100D01*
X133249015Y-94141481D01*
X133130481Y-94260015D01*
X132991100Y-94353147D01*
X132836228Y-94417297D01*
X132671816Y-94450000D01*
X132504184Y-94450000D01*
X132339772Y-94417297D01*
X132184900Y-94353147D01*
X132045519Y-94260015D01*
X131926985Y-94141481D01*
X131833853Y-94002100D01*
X131769703Y-93847228D01*
X131737000Y-93682816D01*
X131737000Y-93515184D01*
X131769703Y-93350772D01*
X131833853Y-93195900D01*
X131926985Y-93056519D01*
X132045519Y-92937985D01*
X132184900Y-92844853D01*
X132339772Y-92780703D01*
X132504184Y-92748000D01*
X132671816Y-92748000D01*
X132836228Y-92780703D01*
G37*
G36*
X125216228Y-92780703D02*
G01*
X125371100Y-92844853D01*
X125510481Y-92937985D01*
X125629015Y-93056519D01*
X125722147Y-93195900D01*
X125786297Y-93350772D01*
X125819000Y-93515184D01*
X125819000Y-93682816D01*
X125786297Y-93847228D01*
X125722147Y-94002100D01*
X125629015Y-94141481D01*
X125510481Y-94260015D01*
X125371100Y-94353147D01*
X125216228Y-94417297D01*
X125051816Y-94450000D01*
X124884184Y-94450000D01*
X124719772Y-94417297D01*
X124564900Y-94353147D01*
X124425519Y-94260015D01*
X124306985Y-94141481D01*
X124213853Y-94002100D01*
X124149703Y-93847228D01*
X124117000Y-93682816D01*
X124117000Y-93515184D01*
X124149703Y-93350772D01*
X124213853Y-93195900D01*
X124306985Y-93056519D01*
X124425519Y-92937985D01*
X124564900Y-92844853D01*
X124719772Y-92780703D01*
X124884184Y-92748000D01*
X125051816Y-92748000D01*
X125216228Y-92780703D01*
G37*
G36*
X125216228Y-90240703D02*
G01*
X125371100Y-90304853D01*
X125510481Y-90397985D01*
X125629015Y-90516519D01*
X125722147Y-90655900D01*
X125786297Y-90810772D01*
X125819000Y-90975184D01*
X125819000Y-91142816D01*
X125786297Y-91307228D01*
X125722147Y-91462100D01*
X125629015Y-91601481D01*
X125510481Y-91720015D01*
X125371100Y-91813147D01*
X125216228Y-91877297D01*
X125051816Y-91910000D01*
X124884184Y-91910000D01*
X124719772Y-91877297D01*
X124564900Y-91813147D01*
X124425519Y-91720015D01*
X124306985Y-91601481D01*
X124213853Y-91462100D01*
X124149703Y-91307228D01*
X124117000Y-91142816D01*
X124117000Y-90975184D01*
X124149703Y-90810772D01*
X124213853Y-90655900D01*
X124306985Y-90516519D01*
X124425519Y-90397985D01*
X124564900Y-90304853D01*
X124719772Y-90240703D01*
X124884184Y-90208000D01*
X125051816Y-90208000D01*
X125216228Y-90240703D01*
G37*
G36*
X132836228Y-90240703D02*
G01*
X132991100Y-90304853D01*
X133130481Y-90397985D01*
X133249015Y-90516519D01*
X133342147Y-90655900D01*
X133406297Y-90810772D01*
X133439000Y-90975184D01*
X133439000Y-91142816D01*
X133406297Y-91307228D01*
X133342147Y-91462100D01*
X133249015Y-91601481D01*
X133130481Y-91720015D01*
X132991100Y-91813147D01*
X132836228Y-91877297D01*
X132671816Y-91910000D01*
X132504184Y-91910000D01*
X132339772Y-91877297D01*
X132184900Y-91813147D01*
X132045519Y-91720015D01*
X131926985Y-91601481D01*
X131833853Y-91462100D01*
X131769703Y-91307228D01*
X131737000Y-91142816D01*
X131737000Y-90975184D01*
X131769703Y-90810772D01*
X131833853Y-90655900D01*
X131926985Y-90516519D01*
X132045519Y-90397985D01*
X132184900Y-90304853D01*
X132339772Y-90240703D01*
X132504184Y-90208000D01*
X132671816Y-90208000D01*
X132836228Y-90240703D01*
G37*
G36*
X132836228Y-87700703D02*
G01*
X132991100Y-87764853D01*
X133130481Y-87857985D01*
X133249015Y-87976519D01*
X133342147Y-88115900D01*
X133406297Y-88270772D01*
X133439000Y-88435184D01*
X133439000Y-88602816D01*
X133406297Y-88767228D01*
X133342147Y-88922100D01*
X133249015Y-89061481D01*
X133130481Y-89180015D01*
X132991100Y-89273147D01*
X132836228Y-89337297D01*
X132671816Y-89370000D01*
X132504184Y-89370000D01*
X132339772Y-89337297D01*
X132184900Y-89273147D01*
X132045519Y-89180015D01*
X131926985Y-89061481D01*
X131833853Y-88922100D01*
X131769703Y-88767228D01*
X131737000Y-88602816D01*
X131737000Y-88435184D01*
X131769703Y-88270772D01*
X131833853Y-88115900D01*
X131926985Y-87976519D01*
X132045519Y-87857985D01*
X132184900Y-87764853D01*
X132339772Y-87700703D01*
X132504184Y-87668000D01*
X132671816Y-87668000D01*
X132836228Y-87700703D01*
G37*
G36*
X125216228Y-87700703D02*
G01*
X125371100Y-87764853D01*
X125510481Y-87857985D01*
X125629015Y-87976519D01*
X125722147Y-88115900D01*
X125786297Y-88270772D01*
X125819000Y-88435184D01*
X125819000Y-88602816D01*
X125786297Y-88767228D01*
X125722147Y-88922100D01*
X125629015Y-89061481D01*
X125510481Y-89180015D01*
X125371100Y-89273147D01*
X125216228Y-89337297D01*
X125051816Y-89370000D01*
X124884184Y-89370000D01*
X124719772Y-89337297D01*
X124564900Y-89273147D01*
X124425519Y-89180015D01*
X124306985Y-89061481D01*
X124213853Y-88922100D01*
X124149703Y-88767228D01*
X124117000Y-88602816D01*
X124117000Y-88435184D01*
X124149703Y-88270772D01*
X124213853Y-88115900D01*
X124306985Y-87976519D01*
X124425519Y-87857985D01*
X124564900Y-87764853D01*
X124719772Y-87700703D01*
X124884184Y-87668000D01*
X125051816Y-87668000D01*
X125216228Y-87700703D01*
G37*
G36*
X125216228Y-85160703D02*
G01*
X125371100Y-85224853D01*
X125510481Y-85317985D01*
X125629015Y-85436519D01*
X125722147Y-85575900D01*
X125786297Y-85730772D01*
X125819000Y-85895184D01*
X125819000Y-86062816D01*
X125786297Y-86227228D01*
X125722147Y-86382100D01*
X125629015Y-86521481D01*
X125510481Y-86640015D01*
X125371100Y-86733147D01*
X125216228Y-86797297D01*
X125051816Y-86830000D01*
X124884184Y-86830000D01*
X124719772Y-86797297D01*
X124564900Y-86733147D01*
X124425519Y-86640015D01*
X124306985Y-86521481D01*
X124213853Y-86382100D01*
X124149703Y-86227228D01*
X124117000Y-86062816D01*
X124117000Y-85895184D01*
X124149703Y-85730772D01*
X124213853Y-85575900D01*
X124306985Y-85436519D01*
X124425519Y-85317985D01*
X124564900Y-85224853D01*
X124719772Y-85160703D01*
X124884184Y-85128000D01*
X125051816Y-85128000D01*
X125216228Y-85160703D01*
G37*
G36*
X132836228Y-85160703D02*
G01*
X132991100Y-85224853D01*
X133130481Y-85317985D01*
X133249015Y-85436519D01*
X133342147Y-85575900D01*
X133406297Y-85730772D01*
X133439000Y-85895184D01*
X133439000Y-86062816D01*
X133406297Y-86227228D01*
X133342147Y-86382100D01*
X133249015Y-86521481D01*
X133130481Y-86640015D01*
X132991100Y-86733147D01*
X132836228Y-86797297D01*
X132671816Y-86830000D01*
X132504184Y-86830000D01*
X132339772Y-86797297D01*
X132184900Y-86733147D01*
X132045519Y-86640015D01*
X131926985Y-86521481D01*
X131833853Y-86382100D01*
X131769703Y-86227228D01*
X131737000Y-86062816D01*
X131737000Y-85895184D01*
X131769703Y-85730772D01*
X131833853Y-85575900D01*
X131926985Y-85436519D01*
X132045519Y-85317985D01*
X132184900Y-85224853D01*
X132339772Y-85160703D01*
X132504184Y-85128000D01*
X132671816Y-85128000D01*
X132836228Y-85160703D01*
G37*
G36*
X125216228Y-82620703D02*
G01*
X125371100Y-82684853D01*
X125510481Y-82777985D01*
X125629015Y-82896519D01*
X125722147Y-83035900D01*
X125786297Y-83190772D01*
X125819000Y-83355184D01*
X125819000Y-83522816D01*
X125786297Y-83687228D01*
X125722147Y-83842100D01*
X125629015Y-83981481D01*
X125510481Y-84100015D01*
X125371100Y-84193147D01*
X125216228Y-84257297D01*
X125051816Y-84290000D01*
X124884184Y-84290000D01*
X124719772Y-84257297D01*
X124564900Y-84193147D01*
X124425519Y-84100015D01*
X124306985Y-83981481D01*
X124213853Y-83842100D01*
X124149703Y-83687228D01*
X124117000Y-83522816D01*
X124117000Y-83355184D01*
X124149703Y-83190772D01*
X124213853Y-83035900D01*
X124306985Y-82896519D01*
X124425519Y-82777985D01*
X124564900Y-82684853D01*
X124719772Y-82620703D01*
X124884184Y-82588000D01*
X125051816Y-82588000D01*
X125216228Y-82620703D01*
G37*
G36*
X132836228Y-82620703D02*
G01*
X132991100Y-82684853D01*
X133130481Y-82777985D01*
X133249015Y-82896519D01*
X133342147Y-83035900D01*
X133406297Y-83190772D01*
X133439000Y-83355184D01*
X133439000Y-83522816D01*
X133406297Y-83687228D01*
X133342147Y-83842100D01*
X133249015Y-83981481D01*
X133130481Y-84100015D01*
X132991100Y-84193147D01*
X132836228Y-84257297D01*
X132671816Y-84290000D01*
X132504184Y-84290000D01*
X132339772Y-84257297D01*
X132184900Y-84193147D01*
X132045519Y-84100015D01*
X131926985Y-83981481D01*
X131833853Y-83842100D01*
X131769703Y-83687228D01*
X131737000Y-83522816D01*
X131737000Y-83355184D01*
X131769703Y-83190772D01*
X131833853Y-83035900D01*
X131926985Y-82896519D01*
X132045519Y-82777985D01*
X132184900Y-82684853D01*
X132339772Y-82620703D01*
X132504184Y-82588000D01*
X132671816Y-82588000D01*
X132836228Y-82620703D01*
G37*
G36*
X132836228Y-80080703D02*
G01*
X132991100Y-80144853D01*
X133130481Y-80237985D01*
X133249015Y-80356519D01*
X133342147Y-80495900D01*
X133406297Y-80650772D01*
X133439000Y-80815184D01*
X133439000Y-80982816D01*
X133406297Y-81147228D01*
X133342147Y-81302100D01*
X133249015Y-81441481D01*
X133130481Y-81560015D01*
X132991100Y-81653147D01*
X132836228Y-81717297D01*
X132671816Y-81750000D01*
X132504184Y-81750000D01*
X132339772Y-81717297D01*
X132184900Y-81653147D01*
X132045519Y-81560015D01*
X131926985Y-81441481D01*
X131833853Y-81302100D01*
X131769703Y-81147228D01*
X131737000Y-80982816D01*
X131737000Y-80815184D01*
X131769703Y-80650772D01*
X131833853Y-80495900D01*
X131926985Y-80356519D01*
X132045519Y-80237985D01*
X132184900Y-80144853D01*
X132339772Y-80080703D01*
X132504184Y-80048000D01*
X132671816Y-80048000D01*
X132836228Y-80080703D01*
G37*
G36*
X125216228Y-80080703D02*
G01*
X125371100Y-80144853D01*
X125510481Y-80237985D01*
X125629015Y-80356519D01*
X125722147Y-80495900D01*
X125786297Y-80650772D01*
X125819000Y-80815184D01*
X125819000Y-80982816D01*
X125786297Y-81147228D01*
X125722147Y-81302100D01*
X125629015Y-81441481D01*
X125510481Y-81560015D01*
X125371100Y-81653147D01*
X125216228Y-81717297D01*
X125051816Y-81750000D01*
X124884184Y-81750000D01*
X124719772Y-81717297D01*
X124564900Y-81653147D01*
X124425519Y-81560015D01*
X124306985Y-81441481D01*
X124213853Y-81302100D01*
X124149703Y-81147228D01*
X124117000Y-80982816D01*
X124117000Y-80815184D01*
X124149703Y-80650772D01*
X124213853Y-80495900D01*
X124306985Y-80356519D01*
X124425519Y-80237985D01*
X124564900Y-80144853D01*
X124719772Y-80080703D01*
X124884184Y-80048000D01*
X125051816Y-80048000D01*
X125216228Y-80080703D01*
G37*
G36*
X132836228Y-77540703D02*
G01*
X132991100Y-77604853D01*
X133130481Y-77697985D01*
X133249015Y-77816519D01*
X133342147Y-77955900D01*
X133406297Y-78110772D01*
X133439000Y-78275184D01*
X133439000Y-78442816D01*
X133406297Y-78607228D01*
X133342147Y-78762100D01*
X133249015Y-78901481D01*
X133130481Y-79020015D01*
X132991100Y-79113147D01*
X132836228Y-79177297D01*
X132671816Y-79210000D01*
X132504184Y-79210000D01*
X132339772Y-79177297D01*
X132184900Y-79113147D01*
X132045519Y-79020015D01*
X131926985Y-78901481D01*
X131833853Y-78762100D01*
X131769703Y-78607228D01*
X131737000Y-78442816D01*
X131737000Y-78275184D01*
X131769703Y-78110772D01*
X131833853Y-77955900D01*
X131926985Y-77816519D01*
X132045519Y-77697985D01*
X132184900Y-77604853D01*
X132339772Y-77540703D01*
X132504184Y-77508000D01*
X132671816Y-77508000D01*
X132836228Y-77540703D01*
G37*
G36*
X125216228Y-77540703D02*
G01*
X125371100Y-77604853D01*
X125510481Y-77697985D01*
X125629015Y-77816519D01*
X125722147Y-77955900D01*
X125786297Y-78110772D01*
X125819000Y-78275184D01*
X125819000Y-78442816D01*
X125786297Y-78607228D01*
X125722147Y-78762100D01*
X125629015Y-78901481D01*
X125510481Y-79020015D01*
X125371100Y-79113147D01*
X125216228Y-79177297D01*
X125051816Y-79210000D01*
X124884184Y-79210000D01*
X124719772Y-79177297D01*
X124564900Y-79113147D01*
X124425519Y-79020015D01*
X124306985Y-78901481D01*
X124213853Y-78762100D01*
X124149703Y-78607228D01*
X124117000Y-78442816D01*
X124117000Y-78275184D01*
X124149703Y-78110772D01*
X124213853Y-77955900D01*
X124306985Y-77816519D01*
X124425519Y-77697985D01*
X124564900Y-77604853D01*
X124719772Y-77540703D01*
X124884184Y-77508000D01*
X125051816Y-77508000D01*
X125216228Y-77540703D01*
G37*
G36*
X132836228Y-75000703D02*
G01*
X132991100Y-75064853D01*
X133130481Y-75157985D01*
X133249015Y-75276519D01*
X133342147Y-75415900D01*
X133406297Y-75570772D01*
X133439000Y-75735184D01*
X133439000Y-75902816D01*
X133406297Y-76067228D01*
X133342147Y-76222100D01*
X133249015Y-76361481D01*
X133130481Y-76480015D01*
X132991100Y-76573147D01*
X132836228Y-76637297D01*
X132671816Y-76670000D01*
X132504184Y-76670000D01*
X132339772Y-76637297D01*
X132184900Y-76573147D01*
X132045519Y-76480015D01*
X131926985Y-76361481D01*
X131833853Y-76222100D01*
X131769703Y-76067228D01*
X131737000Y-75902816D01*
X131737000Y-75735184D01*
X131769703Y-75570772D01*
X131833853Y-75415900D01*
X131926985Y-75276519D01*
X132045519Y-75157985D01*
X132184900Y-75064853D01*
X132339772Y-75000703D01*
X132504184Y-74968000D01*
X132671816Y-74968000D01*
X132836228Y-75000703D01*
G37*
G36*
X125216228Y-75000703D02*
G01*
X125371100Y-75064853D01*
X125510481Y-75157985D01*
X125629015Y-75276519D01*
X125722147Y-75415900D01*
X125786297Y-75570772D01*
X125819000Y-75735184D01*
X125819000Y-75902816D01*
X125786297Y-76067228D01*
X125722147Y-76222100D01*
X125629015Y-76361481D01*
X125510481Y-76480015D01*
X125371100Y-76573147D01*
X125216228Y-76637297D01*
X125051816Y-76670000D01*
X124884184Y-76670000D01*
X124719772Y-76637297D01*
X124564900Y-76573147D01*
X124425519Y-76480015D01*
X124306985Y-76361481D01*
X124213853Y-76222100D01*
X124149703Y-76067228D01*
X124117000Y-75902816D01*
X124117000Y-75735184D01*
X124149703Y-75570772D01*
X124213853Y-75415900D01*
X124306985Y-75276519D01*
X124425519Y-75157985D01*
X124564900Y-75064853D01*
X124719772Y-75000703D01*
X124884184Y-74968000D01*
X125051816Y-74968000D01*
X125216228Y-75000703D01*
G37*
G36*
X125819000Y-74130000D02*
G01*
X124117000Y-74130000D01*
X124117000Y-72428000D01*
X125819000Y-72428000D01*
X125819000Y-74130000D01*
G37*
G36*
X132836228Y-72460703D02*
G01*
X132991100Y-72524853D01*
X133130481Y-72617985D01*
X133249015Y-72736519D01*
X133342147Y-72875900D01*
X133406297Y-73030772D01*
X133439000Y-73195184D01*
X133439000Y-73362816D01*
X133406297Y-73527228D01*
X133342147Y-73682100D01*
X133249015Y-73821481D01*
X133130481Y-73940015D01*
X132991100Y-74033147D01*
X132836228Y-74097297D01*
X132671816Y-74130000D01*
X132504184Y-74130000D01*
X132339772Y-74097297D01*
X132184900Y-74033147D01*
X132045519Y-73940015D01*
X131926985Y-73821481D01*
X131833853Y-73682100D01*
X131769703Y-73527228D01*
X131737000Y-73362816D01*
X131737000Y-73195184D01*
X131769703Y-73030772D01*
X131833853Y-72875900D01*
X131926985Y-72736519D01*
X132045519Y-72617985D01*
X132184900Y-72524853D01*
X132339772Y-72460703D01*
X132504184Y-72428000D01*
X132671816Y-72428000D01*
X132836228Y-72460703D01*
G37*
M02*
