G04 #@! TF.GenerationSoftware,KiCad,Pcbnew,5.1.5+dfsg1-2build2*
G04 #@! TF.CreationDate,2020-11-03T02:55:08+01:00*
G04 #@! TF.ProjectId,VQFN20-P0.4mm-to-PDIP20-adapter,5651464e-3230-42d5-9030-2e346d6d2d74,rev?*
G04 #@! TF.SameCoordinates,Original*
G04 #@! TF.FileFunction,Copper,L2,Bot*
G04 #@! TF.FilePolarity,Positive*
%FSLAX46Y46*%
G04 Gerber Fmt 4.6, Leading zero omitted, Abs format (unit mm)*
G04 Created by KiCad (PCBNEW 5.1.5+dfsg1-2build2) date 2020-11-03 02:55:08*
%MOMM*%
%LPD*%
G04 APERTURE LIST*
%ADD10O,1.600000X1.600000*%
%ADD11R,1.600000X1.600000*%
%ADD12C,0.800000*%
%ADD13C,0.254000*%
G04 APERTURE END LIST*
D10*
X132588000Y-73279000D03*
X124968000Y-96139000D03*
X132588000Y-75819000D03*
X124968000Y-93599000D03*
X132588000Y-78359000D03*
X124968000Y-91059000D03*
X132588000Y-80899000D03*
X124968000Y-88519000D03*
X132588000Y-83439000D03*
X124968000Y-85979000D03*
X132588000Y-85979000D03*
X124968000Y-83439000D03*
X132588000Y-88519000D03*
X124968000Y-80899000D03*
X132588000Y-91059000D03*
X124968000Y-78359000D03*
X132588000Y-93599000D03*
X124968000Y-75819000D03*
X132588000Y-96139000D03*
D11*
X124968000Y-73279000D03*
D12*
X128905000Y-85064600D03*
X126619000Y-77520800D03*
X126923800Y-82372200D03*
D13*
G36*
X131316320Y-72599273D02*
G01*
X131208147Y-72860426D01*
X131153000Y-73137665D01*
X131153000Y-73420335D01*
X131208147Y-73697574D01*
X131316320Y-73958727D01*
X131473363Y-74193759D01*
X131673241Y-74393637D01*
X131905759Y-74549000D01*
X131673241Y-74704363D01*
X131473363Y-74904241D01*
X131316320Y-75139273D01*
X131208147Y-75400426D01*
X131153000Y-75677665D01*
X131153000Y-75960335D01*
X131208147Y-76237574D01*
X131316320Y-76498727D01*
X131473363Y-76733759D01*
X131673241Y-76933637D01*
X131905759Y-77089000D01*
X131673241Y-77244363D01*
X131473363Y-77444241D01*
X131316320Y-77679273D01*
X131208147Y-77940426D01*
X131153000Y-78217665D01*
X131153000Y-78500335D01*
X131208147Y-78777574D01*
X131316320Y-79038727D01*
X131473363Y-79273759D01*
X131673241Y-79473637D01*
X131905759Y-79629000D01*
X131673241Y-79784363D01*
X131473363Y-79984241D01*
X131316320Y-80219273D01*
X131208147Y-80480426D01*
X131153000Y-80757665D01*
X131153000Y-81040335D01*
X131208147Y-81317574D01*
X131316320Y-81578727D01*
X131473363Y-81813759D01*
X131673241Y-82013637D01*
X131905759Y-82169000D01*
X131673241Y-82324363D01*
X131473363Y-82524241D01*
X131316320Y-82759273D01*
X131208147Y-83020426D01*
X131153000Y-83297665D01*
X131153000Y-83580335D01*
X131208147Y-83857574D01*
X131316320Y-84118727D01*
X131473363Y-84353759D01*
X131673241Y-84553637D01*
X131905759Y-84709000D01*
X131673241Y-84864363D01*
X131473363Y-85064241D01*
X131316320Y-85299273D01*
X131208147Y-85560426D01*
X131153000Y-85837665D01*
X131153000Y-86120335D01*
X131208147Y-86397574D01*
X131316320Y-86658727D01*
X131473363Y-86893759D01*
X131673241Y-87093637D01*
X131905759Y-87249000D01*
X131673241Y-87404363D01*
X131473363Y-87604241D01*
X131316320Y-87839273D01*
X131208147Y-88100426D01*
X131153000Y-88377665D01*
X131153000Y-88660335D01*
X131208147Y-88937574D01*
X131316320Y-89198727D01*
X131473363Y-89433759D01*
X131673241Y-89633637D01*
X131905759Y-89789000D01*
X131673241Y-89944363D01*
X131473363Y-90144241D01*
X131316320Y-90379273D01*
X131208147Y-90640426D01*
X131153000Y-90917665D01*
X131153000Y-91200335D01*
X131208147Y-91477574D01*
X131316320Y-91738727D01*
X131473363Y-91973759D01*
X131673241Y-92173637D01*
X131905759Y-92329000D01*
X131673241Y-92484363D01*
X131473363Y-92684241D01*
X131316320Y-92919273D01*
X131208147Y-93180426D01*
X131153000Y-93457665D01*
X131153000Y-93740335D01*
X131208147Y-94017574D01*
X131316320Y-94278727D01*
X131473363Y-94513759D01*
X131673241Y-94713637D01*
X131905759Y-94869000D01*
X131673241Y-95024363D01*
X131473363Y-95224241D01*
X131316320Y-95459273D01*
X131208147Y-95720426D01*
X131153000Y-95997665D01*
X131153000Y-96280335D01*
X131208147Y-96557574D01*
X131316320Y-96818727D01*
X131456419Y-97028400D01*
X126099581Y-97028400D01*
X126239680Y-96818727D01*
X126347853Y-96557574D01*
X126403000Y-96280335D01*
X126403000Y-95997665D01*
X126347853Y-95720426D01*
X126239680Y-95459273D01*
X126082637Y-95224241D01*
X125882759Y-95024363D01*
X125650241Y-94869000D01*
X125882759Y-94713637D01*
X126082637Y-94513759D01*
X126239680Y-94278727D01*
X126347853Y-94017574D01*
X126403000Y-93740335D01*
X126403000Y-93457665D01*
X126347853Y-93180426D01*
X126239680Y-92919273D01*
X126082637Y-92684241D01*
X125882759Y-92484363D01*
X125650241Y-92329000D01*
X125882759Y-92173637D01*
X126082637Y-91973759D01*
X126239680Y-91738727D01*
X126347853Y-91477574D01*
X126403000Y-91200335D01*
X126403000Y-90917665D01*
X126347853Y-90640426D01*
X126239680Y-90379273D01*
X126082637Y-90144241D01*
X125882759Y-89944363D01*
X125650241Y-89789000D01*
X125882759Y-89633637D01*
X126082637Y-89433759D01*
X126239680Y-89198727D01*
X126347853Y-88937574D01*
X126403000Y-88660335D01*
X126403000Y-88377665D01*
X126347853Y-88100426D01*
X126239680Y-87839273D01*
X126082637Y-87604241D01*
X125882759Y-87404363D01*
X125650241Y-87249000D01*
X125882759Y-87093637D01*
X126082637Y-86893759D01*
X126239680Y-86658727D01*
X126347853Y-86397574D01*
X126403000Y-86120335D01*
X126403000Y-85837665D01*
X126347853Y-85560426D01*
X126239680Y-85299273D01*
X126082637Y-85064241D01*
X125882759Y-84864363D01*
X125650241Y-84709000D01*
X125882759Y-84553637D01*
X126082637Y-84353759D01*
X126239680Y-84118727D01*
X126347853Y-83857574D01*
X126403000Y-83580335D01*
X126403000Y-83297665D01*
X126347853Y-83020426D01*
X126239680Y-82759273D01*
X126082637Y-82524241D01*
X125882759Y-82324363D01*
X125650241Y-82169000D01*
X125882759Y-82013637D01*
X126082637Y-81813759D01*
X126239680Y-81578727D01*
X126347853Y-81317574D01*
X126403000Y-81040335D01*
X126403000Y-80757665D01*
X126347853Y-80480426D01*
X126239680Y-80219273D01*
X126082637Y-79984241D01*
X125882759Y-79784363D01*
X125647727Y-79627320D01*
X125637135Y-79622933D01*
X125823131Y-79511385D01*
X126031519Y-79322414D01*
X126199037Y-79096420D01*
X126319246Y-78842087D01*
X126359904Y-78708039D01*
X126237915Y-78486000D01*
X125095000Y-78486000D01*
X125095000Y-78506000D01*
X124841000Y-78506000D01*
X124841000Y-78486000D01*
X124821000Y-78486000D01*
X124821000Y-78232000D01*
X124841000Y-78232000D01*
X124841000Y-78212000D01*
X125095000Y-78212000D01*
X125095000Y-78232000D01*
X126237915Y-78232000D01*
X126359904Y-78009961D01*
X126319246Y-77875913D01*
X126199037Y-77621580D01*
X126031519Y-77395586D01*
X125823131Y-77206615D01*
X125637135Y-77095067D01*
X125647727Y-77090680D01*
X125882759Y-76933637D01*
X126082637Y-76733759D01*
X126239680Y-76498727D01*
X126347853Y-76237574D01*
X126403000Y-75960335D01*
X126403000Y-75677665D01*
X126347853Y-75400426D01*
X126239680Y-75139273D01*
X126082637Y-74904241D01*
X125884039Y-74705643D01*
X125892482Y-74704812D01*
X126012180Y-74668502D01*
X126122494Y-74609537D01*
X126219185Y-74530185D01*
X126298537Y-74433494D01*
X126357502Y-74323180D01*
X126393812Y-74203482D01*
X126406072Y-74079000D01*
X126406072Y-72479000D01*
X126397267Y-72389600D01*
X131456419Y-72389600D01*
X131316320Y-72599273D01*
G37*
X131316320Y-72599273D02*
X131208147Y-72860426D01*
X131153000Y-73137665D01*
X131153000Y-73420335D01*
X131208147Y-73697574D01*
X131316320Y-73958727D01*
X131473363Y-74193759D01*
X131673241Y-74393637D01*
X131905759Y-74549000D01*
X131673241Y-74704363D01*
X131473363Y-74904241D01*
X131316320Y-75139273D01*
X131208147Y-75400426D01*
X131153000Y-75677665D01*
X131153000Y-75960335D01*
X131208147Y-76237574D01*
X131316320Y-76498727D01*
X131473363Y-76733759D01*
X131673241Y-76933637D01*
X131905759Y-77089000D01*
X131673241Y-77244363D01*
X131473363Y-77444241D01*
X131316320Y-77679273D01*
X131208147Y-77940426D01*
X131153000Y-78217665D01*
X131153000Y-78500335D01*
X131208147Y-78777574D01*
X131316320Y-79038727D01*
X131473363Y-79273759D01*
X131673241Y-79473637D01*
X131905759Y-79629000D01*
X131673241Y-79784363D01*
X131473363Y-79984241D01*
X131316320Y-80219273D01*
X131208147Y-80480426D01*
X131153000Y-80757665D01*
X131153000Y-81040335D01*
X131208147Y-81317574D01*
X131316320Y-81578727D01*
X131473363Y-81813759D01*
X131673241Y-82013637D01*
X131905759Y-82169000D01*
X131673241Y-82324363D01*
X131473363Y-82524241D01*
X131316320Y-82759273D01*
X131208147Y-83020426D01*
X131153000Y-83297665D01*
X131153000Y-83580335D01*
X131208147Y-83857574D01*
X131316320Y-84118727D01*
X131473363Y-84353759D01*
X131673241Y-84553637D01*
X131905759Y-84709000D01*
X131673241Y-84864363D01*
X131473363Y-85064241D01*
X131316320Y-85299273D01*
X131208147Y-85560426D01*
X131153000Y-85837665D01*
X131153000Y-86120335D01*
X131208147Y-86397574D01*
X131316320Y-86658727D01*
X131473363Y-86893759D01*
X131673241Y-87093637D01*
X131905759Y-87249000D01*
X131673241Y-87404363D01*
X131473363Y-87604241D01*
X131316320Y-87839273D01*
X131208147Y-88100426D01*
X131153000Y-88377665D01*
X131153000Y-88660335D01*
X131208147Y-88937574D01*
X131316320Y-89198727D01*
X131473363Y-89433759D01*
X131673241Y-89633637D01*
X131905759Y-89789000D01*
X131673241Y-89944363D01*
X131473363Y-90144241D01*
X131316320Y-90379273D01*
X131208147Y-90640426D01*
X131153000Y-90917665D01*
X131153000Y-91200335D01*
X131208147Y-91477574D01*
X131316320Y-91738727D01*
X131473363Y-91973759D01*
X131673241Y-92173637D01*
X131905759Y-92329000D01*
X131673241Y-92484363D01*
X131473363Y-92684241D01*
X131316320Y-92919273D01*
X131208147Y-93180426D01*
X131153000Y-93457665D01*
X131153000Y-93740335D01*
X131208147Y-94017574D01*
X131316320Y-94278727D01*
X131473363Y-94513759D01*
X131673241Y-94713637D01*
X131905759Y-94869000D01*
X131673241Y-95024363D01*
X131473363Y-95224241D01*
X131316320Y-95459273D01*
X131208147Y-95720426D01*
X131153000Y-95997665D01*
X131153000Y-96280335D01*
X131208147Y-96557574D01*
X131316320Y-96818727D01*
X131456419Y-97028400D01*
X126099581Y-97028400D01*
X126239680Y-96818727D01*
X126347853Y-96557574D01*
X126403000Y-96280335D01*
X126403000Y-95997665D01*
X126347853Y-95720426D01*
X126239680Y-95459273D01*
X126082637Y-95224241D01*
X125882759Y-95024363D01*
X125650241Y-94869000D01*
X125882759Y-94713637D01*
X126082637Y-94513759D01*
X126239680Y-94278727D01*
X126347853Y-94017574D01*
X126403000Y-93740335D01*
X126403000Y-93457665D01*
X126347853Y-93180426D01*
X126239680Y-92919273D01*
X126082637Y-92684241D01*
X125882759Y-92484363D01*
X125650241Y-92329000D01*
X125882759Y-92173637D01*
X126082637Y-91973759D01*
X126239680Y-91738727D01*
X126347853Y-91477574D01*
X126403000Y-91200335D01*
X126403000Y-90917665D01*
X126347853Y-90640426D01*
X126239680Y-90379273D01*
X126082637Y-90144241D01*
X125882759Y-89944363D01*
X125650241Y-89789000D01*
X125882759Y-89633637D01*
X126082637Y-89433759D01*
X126239680Y-89198727D01*
X126347853Y-88937574D01*
X126403000Y-88660335D01*
X126403000Y-88377665D01*
X126347853Y-88100426D01*
X126239680Y-87839273D01*
X126082637Y-87604241D01*
X125882759Y-87404363D01*
X125650241Y-87249000D01*
X125882759Y-87093637D01*
X126082637Y-86893759D01*
X126239680Y-86658727D01*
X126347853Y-86397574D01*
X126403000Y-86120335D01*
X126403000Y-85837665D01*
X126347853Y-85560426D01*
X126239680Y-85299273D01*
X126082637Y-85064241D01*
X125882759Y-84864363D01*
X125650241Y-84709000D01*
X125882759Y-84553637D01*
X126082637Y-84353759D01*
X126239680Y-84118727D01*
X126347853Y-83857574D01*
X126403000Y-83580335D01*
X126403000Y-83297665D01*
X126347853Y-83020426D01*
X126239680Y-82759273D01*
X126082637Y-82524241D01*
X125882759Y-82324363D01*
X125650241Y-82169000D01*
X125882759Y-82013637D01*
X126082637Y-81813759D01*
X126239680Y-81578727D01*
X126347853Y-81317574D01*
X126403000Y-81040335D01*
X126403000Y-80757665D01*
X126347853Y-80480426D01*
X126239680Y-80219273D01*
X126082637Y-79984241D01*
X125882759Y-79784363D01*
X125647727Y-79627320D01*
X125637135Y-79622933D01*
X125823131Y-79511385D01*
X126031519Y-79322414D01*
X126199037Y-79096420D01*
X126319246Y-78842087D01*
X126359904Y-78708039D01*
X126237915Y-78486000D01*
X125095000Y-78486000D01*
X125095000Y-78506000D01*
X124841000Y-78506000D01*
X124841000Y-78486000D01*
X124821000Y-78486000D01*
X124821000Y-78232000D01*
X124841000Y-78232000D01*
X124841000Y-78212000D01*
X125095000Y-78212000D01*
X125095000Y-78232000D01*
X126237915Y-78232000D01*
X126359904Y-78009961D01*
X126319246Y-77875913D01*
X126199037Y-77621580D01*
X126031519Y-77395586D01*
X125823131Y-77206615D01*
X125637135Y-77095067D01*
X125647727Y-77090680D01*
X125882759Y-76933637D01*
X126082637Y-76733759D01*
X126239680Y-76498727D01*
X126347853Y-76237574D01*
X126403000Y-75960335D01*
X126403000Y-75677665D01*
X126347853Y-75400426D01*
X126239680Y-75139273D01*
X126082637Y-74904241D01*
X125884039Y-74705643D01*
X125892482Y-74704812D01*
X126012180Y-74668502D01*
X126122494Y-74609537D01*
X126219185Y-74530185D01*
X126298537Y-74433494D01*
X126357502Y-74323180D01*
X126393812Y-74203482D01*
X126406072Y-74079000D01*
X126406072Y-72479000D01*
X126397267Y-72389600D01*
X131456419Y-72389600D01*
X131316320Y-72599273D01*
M02*
