G04 #@! TF.GenerationSoftware,KiCad,Pcbnew,5.1.5+dfsg1-2build2*
G04 #@! TF.CreationDate,2020-11-03T02:55:08+01:00*
G04 #@! TF.ProjectId,VQFN20-P0.4mm-to-PDIP20-adapter,5651464e-3230-42d5-9030-2e346d6d2d74,rev?*
G04 #@! TF.SameCoordinates,Original*
G04 #@! TF.FileFunction,Legend,Top*
G04 #@! TF.FilePolarity,Positive*
%FSLAX46Y46*%
G04 Gerber Fmt 4.6, Leading zero omitted, Abs format (unit mm)*
G04 Created by KiCad (PCBNEW 5.1.5+dfsg1-2build2) date 2020-11-03 02:55:08*
%MOMM*%
%LPD*%
G04 APERTURE LIST*
%ADD10C,0.150000*%
%ADD11C,0.120000*%
G04 APERTURE END LIST*
D10*
X127095214Y-74048880D02*
X126523785Y-74048880D01*
X126809500Y-74048880D02*
X126809500Y-73048880D01*
X126714261Y-73191738D01*
X126619023Y-73286976D01*
X126523785Y-73334595D01*
X127254190Y-89157019D02*
X127158952Y-89109400D01*
X127063714Y-89014161D01*
X126920857Y-88871304D01*
X126825619Y-88823685D01*
X126730380Y-88823685D01*
X126778000Y-89061780D02*
X126682761Y-89014161D01*
X126587523Y-88918923D01*
X126539904Y-88728447D01*
X126539904Y-88395114D01*
X126587523Y-88204638D01*
X126682761Y-88109400D01*
X126778000Y-88061780D01*
X126968476Y-88061780D01*
X127063714Y-88109400D01*
X127158952Y-88204638D01*
X127206571Y-88395114D01*
X127206571Y-88728447D01*
X127158952Y-88918923D01*
X127063714Y-89014161D01*
X126968476Y-89061780D01*
X126778000Y-89061780D01*
X127968476Y-88537971D02*
X127635142Y-88537971D01*
X127635142Y-89061780D02*
X127635142Y-88061780D01*
X128111333Y-88061780D01*
X128492285Y-89061780D02*
X128492285Y-88061780D01*
X129063714Y-89061780D01*
X129063714Y-88061780D01*
X129492285Y-88157019D02*
X129539904Y-88109400D01*
X129635142Y-88061780D01*
X129873238Y-88061780D01*
X129968476Y-88109400D01*
X130016095Y-88157019D01*
X130063714Y-88252257D01*
X130063714Y-88347495D01*
X130016095Y-88490352D01*
X129444666Y-89061780D01*
X130063714Y-89061780D01*
X130682761Y-88061780D02*
X130778000Y-88061780D01*
X130873238Y-88109400D01*
X130920857Y-88157019D01*
X130968476Y-88252257D01*
X131016095Y-88442733D01*
X131016095Y-88680828D01*
X130968476Y-88871304D01*
X130920857Y-88966542D01*
X130873238Y-89014161D01*
X130778000Y-89061780D01*
X130682761Y-89061780D01*
X130587523Y-89014161D01*
X130539904Y-88966542D01*
X130492285Y-88871304D01*
X130444666Y-88680828D01*
X130444666Y-88442733D01*
X130492285Y-88252257D01*
X130539904Y-88157019D01*
X130587523Y-88109400D01*
X130682761Y-88061780D01*
X128135142Y-90045114D02*
X128516095Y-90045114D01*
X128278000Y-89711780D02*
X128278000Y-90568923D01*
X128325619Y-90664161D01*
X128420857Y-90711780D01*
X128516095Y-90711780D01*
X128992285Y-90711780D02*
X128897047Y-90664161D01*
X128849428Y-90616542D01*
X128801809Y-90521304D01*
X128801809Y-90235590D01*
X128849428Y-90140352D01*
X128897047Y-90092733D01*
X128992285Y-90045114D01*
X129135142Y-90045114D01*
X129230380Y-90092733D01*
X129278000Y-90140352D01*
X129325619Y-90235590D01*
X129325619Y-90521304D01*
X129278000Y-90616542D01*
X129230380Y-90664161D01*
X129135142Y-90711780D01*
X128992285Y-90711780D01*
X126825619Y-92361780D02*
X126825619Y-91361780D01*
X127063714Y-91361780D01*
X127206571Y-91409400D01*
X127301809Y-91504638D01*
X127349428Y-91599876D01*
X127397047Y-91790352D01*
X127397047Y-91933209D01*
X127349428Y-92123685D01*
X127301809Y-92218923D01*
X127206571Y-92314161D01*
X127063714Y-92361780D01*
X126825619Y-92361780D01*
X127825619Y-92361780D02*
X127825619Y-91361780D01*
X128301809Y-92361780D02*
X128301809Y-91361780D01*
X128682761Y-91361780D01*
X128778000Y-91409400D01*
X128825619Y-91457019D01*
X128873238Y-91552257D01*
X128873238Y-91695114D01*
X128825619Y-91790352D01*
X128778000Y-91837971D01*
X128682761Y-91885590D01*
X128301809Y-91885590D01*
X129254190Y-91457019D02*
X129301809Y-91409400D01*
X129397047Y-91361780D01*
X129635142Y-91361780D01*
X129730380Y-91409400D01*
X129778000Y-91457019D01*
X129825619Y-91552257D01*
X129825619Y-91647495D01*
X129778000Y-91790352D01*
X129206571Y-92361780D01*
X129825619Y-92361780D01*
X130444666Y-91361780D02*
X130539904Y-91361780D01*
X130635142Y-91409400D01*
X130682761Y-91457019D01*
X130730380Y-91552257D01*
X130778000Y-91742733D01*
X130778000Y-91980828D01*
X130730380Y-92171304D01*
X130682761Y-92266542D01*
X130635142Y-92314161D01*
X130539904Y-92361780D01*
X130444666Y-92361780D01*
X130349428Y-92314161D01*
X130301809Y-92266542D01*
X130254190Y-92171304D01*
X130206571Y-91980828D01*
X130206571Y-91742733D01*
X130254190Y-91552257D01*
X130301809Y-91457019D01*
X130349428Y-91409400D01*
X130444666Y-91361780D01*
X126611333Y-94011780D02*
X126611333Y-93487971D01*
X126563714Y-93392733D01*
X126468476Y-93345114D01*
X126278000Y-93345114D01*
X126182761Y-93392733D01*
X126611333Y-93964161D02*
X126516095Y-94011780D01*
X126278000Y-94011780D01*
X126182761Y-93964161D01*
X126135142Y-93868923D01*
X126135142Y-93773685D01*
X126182761Y-93678447D01*
X126278000Y-93630828D01*
X126516095Y-93630828D01*
X126611333Y-93583209D01*
X127516095Y-94011780D02*
X127516095Y-93011780D01*
X127516095Y-93964161D02*
X127420857Y-94011780D01*
X127230380Y-94011780D01*
X127135142Y-93964161D01*
X127087523Y-93916542D01*
X127039904Y-93821304D01*
X127039904Y-93535590D01*
X127087523Y-93440352D01*
X127135142Y-93392733D01*
X127230380Y-93345114D01*
X127420857Y-93345114D01*
X127516095Y-93392733D01*
X128420857Y-94011780D02*
X128420857Y-93487971D01*
X128373238Y-93392733D01*
X128278000Y-93345114D01*
X128087523Y-93345114D01*
X127992285Y-93392733D01*
X128420857Y-93964161D02*
X128325619Y-94011780D01*
X128087523Y-94011780D01*
X127992285Y-93964161D01*
X127944666Y-93868923D01*
X127944666Y-93773685D01*
X127992285Y-93678447D01*
X128087523Y-93630828D01*
X128325619Y-93630828D01*
X128420857Y-93583209D01*
X128897047Y-93345114D02*
X128897047Y-94345114D01*
X128897047Y-93392733D02*
X128992285Y-93345114D01*
X129182761Y-93345114D01*
X129278000Y-93392733D01*
X129325619Y-93440352D01*
X129373238Y-93535590D01*
X129373238Y-93821304D01*
X129325619Y-93916542D01*
X129278000Y-93964161D01*
X129182761Y-94011780D01*
X128992285Y-94011780D01*
X128897047Y-93964161D01*
X129658952Y-93345114D02*
X130039904Y-93345114D01*
X129801809Y-93011780D02*
X129801809Y-93868923D01*
X129849428Y-93964161D01*
X129944666Y-94011780D01*
X130039904Y-94011780D01*
X130754190Y-93964161D02*
X130658952Y-94011780D01*
X130468476Y-94011780D01*
X130373238Y-93964161D01*
X130325619Y-93868923D01*
X130325619Y-93487971D01*
X130373238Y-93392733D01*
X130468476Y-93345114D01*
X130658952Y-93345114D01*
X130754190Y-93392733D01*
X130801809Y-93487971D01*
X130801809Y-93583209D01*
X130325619Y-93678447D01*
X131230380Y-94011780D02*
X131230380Y-93345114D01*
X131230380Y-93535590D02*
X131278000Y-93440352D01*
X131325619Y-93392733D01*
X131420857Y-93345114D01*
X131516095Y-93345114D01*
D11*
X127383000Y-79876467D02*
X127383000Y-79533933D01*
X126363000Y-79876467D02*
X126363000Y-79533933D01*
X130863686Y-84771802D02*
X131181884Y-85090000D01*
X131181884Y-85090000D02*
X130863686Y-85408198D01*
X126946314Y-85408198D02*
X126628116Y-85090000D01*
X126628116Y-85090000D02*
X126946314Y-84771802D01*
X128586802Y-87048686D02*
X128905000Y-87366884D01*
X128905000Y-87366884D02*
X129223198Y-87048686D01*
X129223198Y-83131314D02*
X128905000Y-82813116D01*
D10*
X126706333Y-77637673D02*
X126658714Y-77685292D01*
X126515857Y-77732911D01*
X126420619Y-77732911D01*
X126277761Y-77685292D01*
X126182523Y-77590054D01*
X126134904Y-77494816D01*
X126087285Y-77304340D01*
X126087285Y-77161483D01*
X126134904Y-76971007D01*
X126182523Y-76875769D01*
X126277761Y-76780531D01*
X126420619Y-76732911D01*
X126515857Y-76732911D01*
X126658714Y-76780531D01*
X126706333Y-76828150D01*
X127658714Y-77732911D02*
X127087285Y-77732911D01*
X127373000Y-77732911D02*
X127373000Y-76732911D01*
X127277761Y-76875769D01*
X127182523Y-76971007D01*
X127087285Y-77018626D01*
X130506077Y-81979626D02*
X129933657Y-82552046D01*
X129899985Y-82653061D01*
X129899985Y-82720405D01*
X129933657Y-82821420D01*
X130068344Y-82956107D01*
X130169359Y-82989779D01*
X130236703Y-82989779D01*
X130337718Y-82956107D01*
X130910138Y-82383687D01*
X130910138Y-83797901D02*
X130506077Y-83393840D01*
X130708107Y-83595870D02*
X131415214Y-82888764D01*
X131246855Y-82922435D01*
X131112168Y-82922435D01*
X131011153Y-82888764D01*
M02*
