G04 #@! TF.GenerationSoftware,KiCad,Pcbnew,5.1.5+dfsg1-2build2*
G04 #@! TF.CreationDate,2020-11-03T02:55:08+01:00*
G04 #@! TF.ProjectId,VQFN20-P0.4mm-to-PDIP20-adapter,5651464e-3230-42d5-9030-2e346d6d2d74,rev?*
G04 #@! TF.SameCoordinates,Original*
G04 #@! TF.FileFunction,Soldermask,Top*
G04 #@! TF.FilePolarity,Negative*
%FSLAX46Y46*%
G04 Gerber Fmt 4.6, Leading zero omitted, Abs format (unit mm)*
G04 Created by KiCad (PCBNEW 5.1.5+dfsg1-2build2) date 2020-11-03 02:55:08*
%MOMM*%
%LPD*%
G04 APERTURE LIST*
%ADD10C,0.100000*%
G04 APERTURE END LIST*
D10*
G36*
X132836228Y-95320703D02*
G01*
X132991100Y-95384853D01*
X133130481Y-95477985D01*
X133249015Y-95596519D01*
X133342147Y-95735900D01*
X133406297Y-95890772D01*
X133439000Y-96055184D01*
X133439000Y-96222816D01*
X133406297Y-96387228D01*
X133342147Y-96542100D01*
X133249015Y-96681481D01*
X133130481Y-96800015D01*
X132991100Y-96893147D01*
X132836228Y-96957297D01*
X132671816Y-96990000D01*
X132504184Y-96990000D01*
X132339772Y-96957297D01*
X132184900Y-96893147D01*
X132045519Y-96800015D01*
X131926985Y-96681481D01*
X131833853Y-96542100D01*
X131769703Y-96387228D01*
X131737000Y-96222816D01*
X131737000Y-96055184D01*
X131769703Y-95890772D01*
X131833853Y-95735900D01*
X131926985Y-95596519D01*
X132045519Y-95477985D01*
X132184900Y-95384853D01*
X132339772Y-95320703D01*
X132504184Y-95288000D01*
X132671816Y-95288000D01*
X132836228Y-95320703D01*
G37*
G36*
X125216228Y-95320703D02*
G01*
X125371100Y-95384853D01*
X125510481Y-95477985D01*
X125629015Y-95596519D01*
X125722147Y-95735900D01*
X125786297Y-95890772D01*
X125819000Y-96055184D01*
X125819000Y-96222816D01*
X125786297Y-96387228D01*
X125722147Y-96542100D01*
X125629015Y-96681481D01*
X125510481Y-96800015D01*
X125371100Y-96893147D01*
X125216228Y-96957297D01*
X125051816Y-96990000D01*
X124884184Y-96990000D01*
X124719772Y-96957297D01*
X124564900Y-96893147D01*
X124425519Y-96800015D01*
X124306985Y-96681481D01*
X124213853Y-96542100D01*
X124149703Y-96387228D01*
X124117000Y-96222816D01*
X124117000Y-96055184D01*
X124149703Y-95890772D01*
X124213853Y-95735900D01*
X124306985Y-95596519D01*
X124425519Y-95477985D01*
X124564900Y-95384853D01*
X124719772Y-95320703D01*
X124884184Y-95288000D01*
X125051816Y-95288000D01*
X125216228Y-95320703D01*
G37*
G36*
X125216228Y-92780703D02*
G01*
X125371100Y-92844853D01*
X125510481Y-92937985D01*
X125629015Y-93056519D01*
X125722147Y-93195900D01*
X125786297Y-93350772D01*
X125819000Y-93515184D01*
X125819000Y-93682816D01*
X125786297Y-93847228D01*
X125722147Y-94002100D01*
X125629015Y-94141481D01*
X125510481Y-94260015D01*
X125371100Y-94353147D01*
X125216228Y-94417297D01*
X125051816Y-94450000D01*
X124884184Y-94450000D01*
X124719772Y-94417297D01*
X124564900Y-94353147D01*
X124425519Y-94260015D01*
X124306985Y-94141481D01*
X124213853Y-94002100D01*
X124149703Y-93847228D01*
X124117000Y-93682816D01*
X124117000Y-93515184D01*
X124149703Y-93350772D01*
X124213853Y-93195900D01*
X124306985Y-93056519D01*
X124425519Y-92937985D01*
X124564900Y-92844853D01*
X124719772Y-92780703D01*
X124884184Y-92748000D01*
X125051816Y-92748000D01*
X125216228Y-92780703D01*
G37*
G36*
X132836228Y-92780703D02*
G01*
X132991100Y-92844853D01*
X133130481Y-92937985D01*
X133249015Y-93056519D01*
X133342147Y-93195900D01*
X133406297Y-93350772D01*
X133439000Y-93515184D01*
X133439000Y-93682816D01*
X133406297Y-93847228D01*
X133342147Y-94002100D01*
X133249015Y-94141481D01*
X133130481Y-94260015D01*
X132991100Y-94353147D01*
X132836228Y-94417297D01*
X132671816Y-94450000D01*
X132504184Y-94450000D01*
X132339772Y-94417297D01*
X132184900Y-94353147D01*
X132045519Y-94260015D01*
X131926985Y-94141481D01*
X131833853Y-94002100D01*
X131769703Y-93847228D01*
X131737000Y-93682816D01*
X131737000Y-93515184D01*
X131769703Y-93350772D01*
X131833853Y-93195900D01*
X131926985Y-93056519D01*
X132045519Y-92937985D01*
X132184900Y-92844853D01*
X132339772Y-92780703D01*
X132504184Y-92748000D01*
X132671816Y-92748000D01*
X132836228Y-92780703D01*
G37*
G36*
X125216228Y-90240703D02*
G01*
X125371100Y-90304853D01*
X125510481Y-90397985D01*
X125629015Y-90516519D01*
X125722147Y-90655900D01*
X125786297Y-90810772D01*
X125819000Y-90975184D01*
X125819000Y-91142816D01*
X125786297Y-91307228D01*
X125722147Y-91462100D01*
X125629015Y-91601481D01*
X125510481Y-91720015D01*
X125371100Y-91813147D01*
X125216228Y-91877297D01*
X125051816Y-91910000D01*
X124884184Y-91910000D01*
X124719772Y-91877297D01*
X124564900Y-91813147D01*
X124425519Y-91720015D01*
X124306985Y-91601481D01*
X124213853Y-91462100D01*
X124149703Y-91307228D01*
X124117000Y-91142816D01*
X124117000Y-90975184D01*
X124149703Y-90810772D01*
X124213853Y-90655900D01*
X124306985Y-90516519D01*
X124425519Y-90397985D01*
X124564900Y-90304853D01*
X124719772Y-90240703D01*
X124884184Y-90208000D01*
X125051816Y-90208000D01*
X125216228Y-90240703D01*
G37*
G36*
X132836228Y-90240703D02*
G01*
X132991100Y-90304853D01*
X133130481Y-90397985D01*
X133249015Y-90516519D01*
X133342147Y-90655900D01*
X133406297Y-90810772D01*
X133439000Y-90975184D01*
X133439000Y-91142816D01*
X133406297Y-91307228D01*
X133342147Y-91462100D01*
X133249015Y-91601481D01*
X133130481Y-91720015D01*
X132991100Y-91813147D01*
X132836228Y-91877297D01*
X132671816Y-91910000D01*
X132504184Y-91910000D01*
X132339772Y-91877297D01*
X132184900Y-91813147D01*
X132045519Y-91720015D01*
X131926985Y-91601481D01*
X131833853Y-91462100D01*
X131769703Y-91307228D01*
X131737000Y-91142816D01*
X131737000Y-90975184D01*
X131769703Y-90810772D01*
X131833853Y-90655900D01*
X131926985Y-90516519D01*
X132045519Y-90397985D01*
X132184900Y-90304853D01*
X132339772Y-90240703D01*
X132504184Y-90208000D01*
X132671816Y-90208000D01*
X132836228Y-90240703D01*
G37*
G36*
X132836228Y-87700703D02*
G01*
X132991100Y-87764853D01*
X133130481Y-87857985D01*
X133249015Y-87976519D01*
X133342147Y-88115900D01*
X133406297Y-88270772D01*
X133439000Y-88435184D01*
X133439000Y-88602816D01*
X133406297Y-88767228D01*
X133342147Y-88922100D01*
X133249015Y-89061481D01*
X133130481Y-89180015D01*
X132991100Y-89273147D01*
X132836228Y-89337297D01*
X132671816Y-89370000D01*
X132504184Y-89370000D01*
X132339772Y-89337297D01*
X132184900Y-89273147D01*
X132045519Y-89180015D01*
X131926985Y-89061481D01*
X131833853Y-88922100D01*
X131769703Y-88767228D01*
X131737000Y-88602816D01*
X131737000Y-88435184D01*
X131769703Y-88270772D01*
X131833853Y-88115900D01*
X131926985Y-87976519D01*
X132045519Y-87857985D01*
X132184900Y-87764853D01*
X132339772Y-87700703D01*
X132504184Y-87668000D01*
X132671816Y-87668000D01*
X132836228Y-87700703D01*
G37*
G36*
X125216228Y-87700703D02*
G01*
X125371100Y-87764853D01*
X125510481Y-87857985D01*
X125629015Y-87976519D01*
X125722147Y-88115900D01*
X125786297Y-88270772D01*
X125819000Y-88435184D01*
X125819000Y-88602816D01*
X125786297Y-88767228D01*
X125722147Y-88922100D01*
X125629015Y-89061481D01*
X125510481Y-89180015D01*
X125371100Y-89273147D01*
X125216228Y-89337297D01*
X125051816Y-89370000D01*
X124884184Y-89370000D01*
X124719772Y-89337297D01*
X124564900Y-89273147D01*
X124425519Y-89180015D01*
X124306985Y-89061481D01*
X124213853Y-88922100D01*
X124149703Y-88767228D01*
X124117000Y-88602816D01*
X124117000Y-88435184D01*
X124149703Y-88270772D01*
X124213853Y-88115900D01*
X124306985Y-87976519D01*
X124425519Y-87857985D01*
X124564900Y-87764853D01*
X124719772Y-87700703D01*
X124884184Y-87668000D01*
X125051816Y-87668000D01*
X125216228Y-87700703D01*
G37*
G36*
X128262705Y-83119046D02*
G01*
X128281096Y-83126664D01*
X128298668Y-83138407D01*
X128299119Y-83138776D01*
X128307436Y-83146314D01*
X128762219Y-83601097D01*
X128769757Y-83609414D01*
X128770124Y-83609862D01*
X128781874Y-83627448D01*
X128789517Y-83645899D01*
X128801068Y-83667510D01*
X128816613Y-83686452D01*
X128835555Y-83701997D01*
X128857166Y-83713548D01*
X128880615Y-83720660D01*
X128905001Y-83723062D01*
X128929387Y-83720660D01*
X128952836Y-83713546D01*
X128974447Y-83701995D01*
X128993389Y-83686450D01*
X129008934Y-83667508D01*
X129020483Y-83645899D01*
X129028126Y-83627448D01*
X129039876Y-83609862D01*
X129040243Y-83609414D01*
X129047781Y-83601097D01*
X129502564Y-83146314D01*
X129510881Y-83138776D01*
X129511332Y-83138407D01*
X129528904Y-83126664D01*
X129547295Y-83119046D01*
X129566809Y-83115166D01*
X129586693Y-83115166D01*
X129606207Y-83119046D01*
X129624598Y-83126664D01*
X129642170Y-83138407D01*
X129642621Y-83138776D01*
X129650938Y-83146314D01*
X129717315Y-83212691D01*
X129724853Y-83221008D01*
X129725222Y-83221459D01*
X129736965Y-83239031D01*
X129744580Y-83257416D01*
X129745445Y-83261766D01*
X129752556Y-83285216D01*
X129764105Y-83306828D01*
X129779649Y-83325771D01*
X129798589Y-83341318D01*
X129820199Y-83352871D01*
X129843647Y-83359987D01*
X129855795Y-83361789D01*
X129862010Y-83362401D01*
X129864339Y-83363108D01*
X129866481Y-83364253D01*
X129873125Y-83369705D01*
X129912975Y-83409555D01*
X129912981Y-83409560D01*
X130019754Y-83516333D01*
X130019759Y-83516339D01*
X130059609Y-83556189D01*
X130065061Y-83562833D01*
X130067100Y-83566646D01*
X130075036Y-83585806D01*
X130088650Y-83606181D01*
X130105977Y-83623508D01*
X130126351Y-83637121D01*
X130145511Y-83645057D01*
X130149324Y-83647096D01*
X130155968Y-83652548D01*
X130195818Y-83692398D01*
X130195824Y-83692403D01*
X130302597Y-83799176D01*
X130302602Y-83799182D01*
X130342452Y-83839032D01*
X130347904Y-83845676D01*
X130349943Y-83849489D01*
X130357879Y-83868649D01*
X130371493Y-83889024D01*
X130388820Y-83906351D01*
X130409194Y-83919964D01*
X130428354Y-83927900D01*
X130432167Y-83929939D01*
X130438811Y-83935391D01*
X130478661Y-83975241D01*
X130478667Y-83975246D01*
X130585440Y-84082019D01*
X130585445Y-84082025D01*
X130625295Y-84121875D01*
X130630747Y-84128519D01*
X130631892Y-84130661D01*
X130632599Y-84132990D01*
X130633211Y-84139205D01*
X130637991Y-84163239D01*
X130647368Y-84185878D01*
X130660981Y-84206252D01*
X130678308Y-84223580D01*
X130698682Y-84237194D01*
X130721321Y-84246571D01*
X130733234Y-84249555D01*
X130737584Y-84250420D01*
X130755969Y-84258035D01*
X130773541Y-84269778D01*
X130773992Y-84270147D01*
X130782309Y-84277685D01*
X130848686Y-84344062D01*
X130856224Y-84352379D01*
X130856593Y-84352830D01*
X130868336Y-84370402D01*
X130875954Y-84388793D01*
X130879834Y-84408307D01*
X130879834Y-84428191D01*
X130875954Y-84447705D01*
X130868336Y-84466096D01*
X130856593Y-84483668D01*
X130856224Y-84484119D01*
X130848686Y-84492436D01*
X130393903Y-84947219D01*
X130385586Y-84954757D01*
X130385138Y-84955124D01*
X130367552Y-84966874D01*
X130349101Y-84974517D01*
X130327490Y-84986068D01*
X130308548Y-85001613D01*
X130293003Y-85020555D01*
X130281452Y-85042166D01*
X130274340Y-85065615D01*
X130271938Y-85090001D01*
X130274340Y-85114387D01*
X130281454Y-85137836D01*
X130293005Y-85159447D01*
X130308550Y-85178389D01*
X130327492Y-85193934D01*
X130349101Y-85205483D01*
X130367552Y-85213126D01*
X130385138Y-85224876D01*
X130385586Y-85225243D01*
X130393903Y-85232781D01*
X130848686Y-85687564D01*
X130856224Y-85695881D01*
X130856593Y-85696332D01*
X130868336Y-85713904D01*
X130875954Y-85732295D01*
X130879834Y-85751809D01*
X130879834Y-85771693D01*
X130875954Y-85791207D01*
X130868336Y-85809598D01*
X130856593Y-85827170D01*
X130856224Y-85827621D01*
X130848686Y-85835938D01*
X130782309Y-85902315D01*
X130773992Y-85909853D01*
X130773541Y-85910222D01*
X130755969Y-85921965D01*
X130737584Y-85929580D01*
X130733234Y-85930445D01*
X130709784Y-85937556D01*
X130688172Y-85949105D01*
X130669229Y-85964649D01*
X130653682Y-85983589D01*
X130642129Y-86005199D01*
X130635013Y-86028647D01*
X130633211Y-86040795D01*
X130632599Y-86047010D01*
X130631892Y-86049339D01*
X130630747Y-86051481D01*
X130625295Y-86058125D01*
X130585445Y-86097975D01*
X130585440Y-86097981D01*
X130478667Y-86204754D01*
X130478661Y-86204759D01*
X130438811Y-86244609D01*
X130432167Y-86250061D01*
X130428354Y-86252100D01*
X130409194Y-86260036D01*
X130388819Y-86273650D01*
X130371492Y-86290977D01*
X130357879Y-86311351D01*
X130349943Y-86330511D01*
X130347904Y-86334324D01*
X130342452Y-86340968D01*
X130302602Y-86380818D01*
X130302597Y-86380824D01*
X130195824Y-86487597D01*
X130195818Y-86487602D01*
X130155968Y-86527452D01*
X130149324Y-86532904D01*
X130145511Y-86534943D01*
X130126351Y-86542879D01*
X130105976Y-86556493D01*
X130088649Y-86573820D01*
X130075036Y-86594194D01*
X130067100Y-86613354D01*
X130065061Y-86617167D01*
X130059609Y-86623811D01*
X130019759Y-86663661D01*
X130019754Y-86663667D01*
X129912981Y-86770440D01*
X129912975Y-86770445D01*
X129873125Y-86810295D01*
X129866481Y-86815747D01*
X129864339Y-86816892D01*
X129862010Y-86817599D01*
X129855795Y-86818211D01*
X129831761Y-86822991D01*
X129809122Y-86832368D01*
X129788748Y-86845981D01*
X129771420Y-86863308D01*
X129757806Y-86883682D01*
X129748429Y-86906321D01*
X129745445Y-86918234D01*
X129744580Y-86922584D01*
X129736965Y-86940969D01*
X129725222Y-86958541D01*
X129724853Y-86958992D01*
X129717315Y-86967309D01*
X129650938Y-87033686D01*
X129642621Y-87041224D01*
X129642170Y-87041593D01*
X129624598Y-87053336D01*
X129606207Y-87060954D01*
X129586693Y-87064834D01*
X129566809Y-87064834D01*
X129547295Y-87060954D01*
X129528904Y-87053336D01*
X129511332Y-87041593D01*
X129510881Y-87041224D01*
X129502564Y-87033686D01*
X129047781Y-86578903D01*
X129040243Y-86570586D01*
X129039876Y-86570138D01*
X129028126Y-86552552D01*
X129020483Y-86534101D01*
X129008932Y-86512490D01*
X128993387Y-86493548D01*
X128974445Y-86478003D01*
X128952834Y-86466452D01*
X128929385Y-86459340D01*
X128904999Y-86456938D01*
X128880613Y-86459340D01*
X128857164Y-86466454D01*
X128835553Y-86478005D01*
X128816611Y-86493550D01*
X128801066Y-86512492D01*
X128789517Y-86534101D01*
X128781874Y-86552552D01*
X128770124Y-86570138D01*
X128769757Y-86570586D01*
X128762219Y-86578903D01*
X128307436Y-87033686D01*
X128299119Y-87041224D01*
X128298668Y-87041593D01*
X128281096Y-87053336D01*
X128262705Y-87060954D01*
X128243191Y-87064834D01*
X128223307Y-87064834D01*
X128203793Y-87060954D01*
X128185402Y-87053336D01*
X128167830Y-87041593D01*
X128167379Y-87041224D01*
X128159062Y-87033686D01*
X128092685Y-86967309D01*
X128085147Y-86958992D01*
X128084778Y-86958541D01*
X128073035Y-86940969D01*
X128065420Y-86922584D01*
X128064555Y-86918234D01*
X128057444Y-86894784D01*
X128045895Y-86873172D01*
X128030351Y-86854229D01*
X128011411Y-86838682D01*
X127989801Y-86827129D01*
X127966353Y-86820013D01*
X127954205Y-86818211D01*
X127947990Y-86817599D01*
X127945661Y-86816892D01*
X127943519Y-86815747D01*
X127936875Y-86810295D01*
X127897025Y-86770445D01*
X127897019Y-86770440D01*
X127790246Y-86663667D01*
X127790241Y-86663661D01*
X127750391Y-86623811D01*
X127744939Y-86617167D01*
X127742900Y-86613354D01*
X127734964Y-86594194D01*
X127721350Y-86573819D01*
X127704023Y-86556492D01*
X127683649Y-86542879D01*
X127664489Y-86534943D01*
X127660676Y-86532904D01*
X127654032Y-86527452D01*
X127614182Y-86487602D01*
X127614176Y-86487597D01*
X127507403Y-86380824D01*
X127507398Y-86380818D01*
X127467548Y-86340968D01*
X127462096Y-86334324D01*
X127460057Y-86330511D01*
X127452121Y-86311351D01*
X127438507Y-86290976D01*
X127421180Y-86273649D01*
X127400806Y-86260036D01*
X127381646Y-86252100D01*
X127377833Y-86250061D01*
X127371189Y-86244609D01*
X127331339Y-86204759D01*
X127331333Y-86204754D01*
X127224560Y-86097981D01*
X127224555Y-86097975D01*
X127184705Y-86058125D01*
X127179253Y-86051481D01*
X127178108Y-86049339D01*
X127177401Y-86047010D01*
X127176789Y-86040795D01*
X127172009Y-86016761D01*
X127162632Y-85994122D01*
X127149019Y-85973748D01*
X127131692Y-85956420D01*
X127111318Y-85942806D01*
X127088679Y-85933429D01*
X127076766Y-85930445D01*
X127072416Y-85929580D01*
X127054031Y-85921965D01*
X127036459Y-85910222D01*
X127036008Y-85909853D01*
X127027691Y-85902315D01*
X126961314Y-85835938D01*
X126953776Y-85827621D01*
X126953407Y-85827170D01*
X126941664Y-85809598D01*
X126934046Y-85791207D01*
X126930166Y-85771693D01*
X126930166Y-85751809D01*
X126934046Y-85732295D01*
X126941664Y-85713904D01*
X126953407Y-85696332D01*
X126953776Y-85695881D01*
X126961314Y-85687564D01*
X127416097Y-85232781D01*
X127424414Y-85225243D01*
X127424862Y-85224876D01*
X127442448Y-85213126D01*
X127460899Y-85205483D01*
X127482510Y-85193932D01*
X127501452Y-85178387D01*
X127516997Y-85159445D01*
X127528548Y-85137834D01*
X127535660Y-85114385D01*
X127538062Y-85089999D01*
X127535660Y-85065613D01*
X127528546Y-85042164D01*
X127516995Y-85020553D01*
X127501450Y-85001611D01*
X127482508Y-84986066D01*
X127460899Y-84974517D01*
X127442448Y-84966874D01*
X127424862Y-84955124D01*
X127424414Y-84954757D01*
X127416097Y-84947219D01*
X126961314Y-84492436D01*
X126953776Y-84484119D01*
X126953407Y-84483668D01*
X126941664Y-84466096D01*
X126934046Y-84447705D01*
X126930166Y-84428191D01*
X126930166Y-84408307D01*
X126934046Y-84388793D01*
X126941664Y-84370402D01*
X126953407Y-84352830D01*
X126953776Y-84352379D01*
X126961314Y-84344062D01*
X127027691Y-84277685D01*
X127036008Y-84270147D01*
X127036459Y-84269778D01*
X127054031Y-84258035D01*
X127072416Y-84250420D01*
X127076766Y-84249555D01*
X127100216Y-84242444D01*
X127121828Y-84230895D01*
X127140771Y-84215351D01*
X127156318Y-84196411D01*
X127167871Y-84174801D01*
X127174987Y-84151353D01*
X127176789Y-84139205D01*
X127177401Y-84132990D01*
X127178108Y-84130661D01*
X127179253Y-84128519D01*
X127184705Y-84121875D01*
X127224555Y-84082025D01*
X127224560Y-84082019D01*
X127331333Y-83975246D01*
X127331339Y-83975241D01*
X127371189Y-83935391D01*
X127377833Y-83929939D01*
X127381646Y-83927900D01*
X127400806Y-83919964D01*
X127421181Y-83906350D01*
X127438508Y-83889023D01*
X127452121Y-83868649D01*
X127460057Y-83849489D01*
X127462096Y-83845676D01*
X127467548Y-83839032D01*
X127507398Y-83799182D01*
X127507403Y-83799176D01*
X127614176Y-83692403D01*
X127614182Y-83692398D01*
X127654032Y-83652548D01*
X127660676Y-83647096D01*
X127664489Y-83645057D01*
X127683649Y-83637121D01*
X127704024Y-83623507D01*
X127721351Y-83606180D01*
X127734964Y-83585806D01*
X127742900Y-83566646D01*
X127744939Y-83562833D01*
X127750391Y-83556189D01*
X127790241Y-83516339D01*
X127790246Y-83516333D01*
X127897019Y-83409560D01*
X127897025Y-83409555D01*
X127936875Y-83369705D01*
X127943519Y-83364253D01*
X127945661Y-83363108D01*
X127947990Y-83362401D01*
X127954205Y-83361789D01*
X127978239Y-83357009D01*
X128000878Y-83347632D01*
X128021252Y-83334019D01*
X128038580Y-83316692D01*
X128052194Y-83296318D01*
X128061571Y-83273679D01*
X128064555Y-83261766D01*
X128065420Y-83257416D01*
X128073035Y-83239031D01*
X128084778Y-83221459D01*
X128085147Y-83221008D01*
X128092685Y-83212691D01*
X128159062Y-83146314D01*
X128167379Y-83138776D01*
X128167830Y-83138407D01*
X128185402Y-83126664D01*
X128203793Y-83119046D01*
X128223307Y-83115166D01*
X128243191Y-83115166D01*
X128262705Y-83119046D01*
G37*
G36*
X125216228Y-85160703D02*
G01*
X125371100Y-85224853D01*
X125510481Y-85317985D01*
X125629015Y-85436519D01*
X125722147Y-85575900D01*
X125786297Y-85730772D01*
X125819000Y-85895184D01*
X125819000Y-86062816D01*
X125786297Y-86227228D01*
X125722147Y-86382100D01*
X125629015Y-86521481D01*
X125510481Y-86640015D01*
X125371100Y-86733147D01*
X125216228Y-86797297D01*
X125051816Y-86830000D01*
X124884184Y-86830000D01*
X124719772Y-86797297D01*
X124564900Y-86733147D01*
X124425519Y-86640015D01*
X124306985Y-86521481D01*
X124213853Y-86382100D01*
X124149703Y-86227228D01*
X124117000Y-86062816D01*
X124117000Y-85895184D01*
X124149703Y-85730772D01*
X124213853Y-85575900D01*
X124306985Y-85436519D01*
X124425519Y-85317985D01*
X124564900Y-85224853D01*
X124719772Y-85160703D01*
X124884184Y-85128000D01*
X125051816Y-85128000D01*
X125216228Y-85160703D01*
G37*
G36*
X132836228Y-85160703D02*
G01*
X132991100Y-85224853D01*
X133130481Y-85317985D01*
X133249015Y-85436519D01*
X133342147Y-85575900D01*
X133406297Y-85730772D01*
X133439000Y-85895184D01*
X133439000Y-86062816D01*
X133406297Y-86227228D01*
X133342147Y-86382100D01*
X133249015Y-86521481D01*
X133130481Y-86640015D01*
X132991100Y-86733147D01*
X132836228Y-86797297D01*
X132671816Y-86830000D01*
X132504184Y-86830000D01*
X132339772Y-86797297D01*
X132184900Y-86733147D01*
X132045519Y-86640015D01*
X131926985Y-86521481D01*
X131833853Y-86382100D01*
X131769703Y-86227228D01*
X131737000Y-86062816D01*
X131737000Y-85895184D01*
X131769703Y-85730772D01*
X131833853Y-85575900D01*
X131926985Y-85436519D01*
X132045519Y-85317985D01*
X132184900Y-85224853D01*
X132339772Y-85160703D01*
X132504184Y-85128000D01*
X132671816Y-85128000D01*
X132836228Y-85160703D01*
G37*
G36*
X132836228Y-82620703D02*
G01*
X132991100Y-82684853D01*
X133130481Y-82777985D01*
X133249015Y-82896519D01*
X133342147Y-83035900D01*
X133406297Y-83190772D01*
X133439000Y-83355184D01*
X133439000Y-83522816D01*
X133406297Y-83687228D01*
X133342147Y-83842100D01*
X133249015Y-83981481D01*
X133130481Y-84100015D01*
X132991100Y-84193147D01*
X132836228Y-84257297D01*
X132671816Y-84290000D01*
X132504184Y-84290000D01*
X132339772Y-84257297D01*
X132184900Y-84193147D01*
X132045519Y-84100015D01*
X131926985Y-83981481D01*
X131833853Y-83842100D01*
X131769703Y-83687228D01*
X131737000Y-83522816D01*
X131737000Y-83355184D01*
X131769703Y-83190772D01*
X131833853Y-83035900D01*
X131926985Y-82896519D01*
X132045519Y-82777985D01*
X132184900Y-82684853D01*
X132339772Y-82620703D01*
X132504184Y-82588000D01*
X132671816Y-82588000D01*
X132836228Y-82620703D01*
G37*
G36*
X125216228Y-82620703D02*
G01*
X125371100Y-82684853D01*
X125510481Y-82777985D01*
X125629015Y-82896519D01*
X125722147Y-83035900D01*
X125786297Y-83190772D01*
X125819000Y-83355184D01*
X125819000Y-83522816D01*
X125786297Y-83687228D01*
X125722147Y-83842100D01*
X125629015Y-83981481D01*
X125510481Y-84100015D01*
X125371100Y-84193147D01*
X125216228Y-84257297D01*
X125051816Y-84290000D01*
X124884184Y-84290000D01*
X124719772Y-84257297D01*
X124564900Y-84193147D01*
X124425519Y-84100015D01*
X124306985Y-83981481D01*
X124213853Y-83842100D01*
X124149703Y-83687228D01*
X124117000Y-83522816D01*
X124117000Y-83355184D01*
X124149703Y-83190772D01*
X124213853Y-83035900D01*
X124306985Y-82896519D01*
X124425519Y-82777985D01*
X124564900Y-82684853D01*
X124719772Y-82620703D01*
X124884184Y-82588000D01*
X125051816Y-82588000D01*
X125216228Y-82620703D01*
G37*
G36*
X125216228Y-80080703D02*
G01*
X125371100Y-80144853D01*
X125510481Y-80237985D01*
X125629015Y-80356519D01*
X125722147Y-80495900D01*
X125786297Y-80650772D01*
X125819000Y-80815184D01*
X125819000Y-80982816D01*
X125786297Y-81147228D01*
X125722147Y-81302100D01*
X125629015Y-81441481D01*
X125510481Y-81560015D01*
X125371100Y-81653147D01*
X125216228Y-81717297D01*
X125051816Y-81750000D01*
X124884184Y-81750000D01*
X124719772Y-81717297D01*
X124564900Y-81653147D01*
X124425519Y-81560015D01*
X124306985Y-81441481D01*
X124213853Y-81302100D01*
X124149703Y-81147228D01*
X124117000Y-80982816D01*
X124117000Y-80815184D01*
X124149703Y-80650772D01*
X124213853Y-80495900D01*
X124306985Y-80356519D01*
X124425519Y-80237985D01*
X124564900Y-80144853D01*
X124719772Y-80080703D01*
X124884184Y-80048000D01*
X125051816Y-80048000D01*
X125216228Y-80080703D01*
G37*
G36*
X132836228Y-80080703D02*
G01*
X132991100Y-80144853D01*
X133130481Y-80237985D01*
X133249015Y-80356519D01*
X133342147Y-80495900D01*
X133406297Y-80650772D01*
X133439000Y-80815184D01*
X133439000Y-80982816D01*
X133406297Y-81147228D01*
X133342147Y-81302100D01*
X133249015Y-81441481D01*
X133130481Y-81560015D01*
X132991100Y-81653147D01*
X132836228Y-81717297D01*
X132671816Y-81750000D01*
X132504184Y-81750000D01*
X132339772Y-81717297D01*
X132184900Y-81653147D01*
X132045519Y-81560015D01*
X131926985Y-81441481D01*
X131833853Y-81302100D01*
X131769703Y-81147228D01*
X131737000Y-80982816D01*
X131737000Y-80815184D01*
X131769703Y-80650772D01*
X131833853Y-80495900D01*
X131926985Y-80356519D01*
X132045519Y-80237985D01*
X132184900Y-80144853D01*
X132339772Y-80080703D01*
X132504184Y-80048000D01*
X132671816Y-80048000D01*
X132836228Y-80080703D01*
G37*
G36*
X127237499Y-80008645D02*
G01*
X127274995Y-80020020D01*
X127309554Y-80038492D01*
X127339847Y-80063353D01*
X127364708Y-80093646D01*
X127383180Y-80128205D01*
X127394555Y-80165701D01*
X127399000Y-80210838D01*
X127399000Y-80949562D01*
X127394555Y-80994699D01*
X127383180Y-81032195D01*
X127364708Y-81066754D01*
X127339847Y-81097047D01*
X127309554Y-81121908D01*
X127274995Y-81140380D01*
X127237499Y-81151755D01*
X127192362Y-81156200D01*
X126553638Y-81156200D01*
X126508501Y-81151755D01*
X126471005Y-81140380D01*
X126436446Y-81121908D01*
X126406153Y-81097047D01*
X126381292Y-81066754D01*
X126362820Y-81032195D01*
X126351445Y-80994699D01*
X126347000Y-80949562D01*
X126347000Y-80210838D01*
X126351445Y-80165701D01*
X126362820Y-80128205D01*
X126381292Y-80093646D01*
X126406153Y-80063353D01*
X126436446Y-80038492D01*
X126471005Y-80020020D01*
X126508501Y-80008645D01*
X126553638Y-80004200D01*
X127192362Y-80004200D01*
X127237499Y-80008645D01*
G37*
G36*
X127237499Y-78258645D02*
G01*
X127274995Y-78270020D01*
X127309554Y-78288492D01*
X127339847Y-78313353D01*
X127364708Y-78343646D01*
X127383180Y-78378205D01*
X127394555Y-78415701D01*
X127399000Y-78460838D01*
X127399000Y-79199562D01*
X127394555Y-79244699D01*
X127383180Y-79282195D01*
X127364708Y-79316754D01*
X127339847Y-79347047D01*
X127309554Y-79371908D01*
X127274995Y-79390380D01*
X127237499Y-79401755D01*
X127192362Y-79406200D01*
X126553638Y-79406200D01*
X126508501Y-79401755D01*
X126471005Y-79390380D01*
X126436446Y-79371908D01*
X126406153Y-79347047D01*
X126381292Y-79316754D01*
X126362820Y-79282195D01*
X126351445Y-79244699D01*
X126347000Y-79199562D01*
X126347000Y-78460838D01*
X126351445Y-78415701D01*
X126362820Y-78378205D01*
X126381292Y-78343646D01*
X126406153Y-78313353D01*
X126436446Y-78288492D01*
X126471005Y-78270020D01*
X126508501Y-78258645D01*
X126553638Y-78254200D01*
X127192362Y-78254200D01*
X127237499Y-78258645D01*
G37*
G36*
X125216228Y-77540703D02*
G01*
X125371100Y-77604853D01*
X125510481Y-77697985D01*
X125629015Y-77816519D01*
X125722147Y-77955900D01*
X125786297Y-78110772D01*
X125819000Y-78275184D01*
X125819000Y-78442816D01*
X125786297Y-78607228D01*
X125722147Y-78762100D01*
X125629015Y-78901481D01*
X125510481Y-79020015D01*
X125371100Y-79113147D01*
X125216228Y-79177297D01*
X125051816Y-79210000D01*
X124884184Y-79210000D01*
X124719772Y-79177297D01*
X124564900Y-79113147D01*
X124425519Y-79020015D01*
X124306985Y-78901481D01*
X124213853Y-78762100D01*
X124149703Y-78607228D01*
X124117000Y-78442816D01*
X124117000Y-78275184D01*
X124149703Y-78110772D01*
X124213853Y-77955900D01*
X124306985Y-77816519D01*
X124425519Y-77697985D01*
X124564900Y-77604853D01*
X124719772Y-77540703D01*
X124884184Y-77508000D01*
X125051816Y-77508000D01*
X125216228Y-77540703D01*
G37*
G36*
X132836228Y-77540703D02*
G01*
X132991100Y-77604853D01*
X133130481Y-77697985D01*
X133249015Y-77816519D01*
X133342147Y-77955900D01*
X133406297Y-78110772D01*
X133439000Y-78275184D01*
X133439000Y-78442816D01*
X133406297Y-78607228D01*
X133342147Y-78762100D01*
X133249015Y-78901481D01*
X133130481Y-79020015D01*
X132991100Y-79113147D01*
X132836228Y-79177297D01*
X132671816Y-79210000D01*
X132504184Y-79210000D01*
X132339772Y-79177297D01*
X132184900Y-79113147D01*
X132045519Y-79020015D01*
X131926985Y-78901481D01*
X131833853Y-78762100D01*
X131769703Y-78607228D01*
X131737000Y-78442816D01*
X131737000Y-78275184D01*
X131769703Y-78110772D01*
X131833853Y-77955900D01*
X131926985Y-77816519D01*
X132045519Y-77697985D01*
X132184900Y-77604853D01*
X132339772Y-77540703D01*
X132504184Y-77508000D01*
X132671816Y-77508000D01*
X132836228Y-77540703D01*
G37*
G36*
X125216228Y-75000703D02*
G01*
X125371100Y-75064853D01*
X125510481Y-75157985D01*
X125629015Y-75276519D01*
X125722147Y-75415900D01*
X125786297Y-75570772D01*
X125819000Y-75735184D01*
X125819000Y-75902816D01*
X125786297Y-76067228D01*
X125722147Y-76222100D01*
X125629015Y-76361481D01*
X125510481Y-76480015D01*
X125371100Y-76573147D01*
X125216228Y-76637297D01*
X125051816Y-76670000D01*
X124884184Y-76670000D01*
X124719772Y-76637297D01*
X124564900Y-76573147D01*
X124425519Y-76480015D01*
X124306985Y-76361481D01*
X124213853Y-76222100D01*
X124149703Y-76067228D01*
X124117000Y-75902816D01*
X124117000Y-75735184D01*
X124149703Y-75570772D01*
X124213853Y-75415900D01*
X124306985Y-75276519D01*
X124425519Y-75157985D01*
X124564900Y-75064853D01*
X124719772Y-75000703D01*
X124884184Y-74968000D01*
X125051816Y-74968000D01*
X125216228Y-75000703D01*
G37*
G36*
X132836228Y-75000703D02*
G01*
X132991100Y-75064853D01*
X133130481Y-75157985D01*
X133249015Y-75276519D01*
X133342147Y-75415900D01*
X133406297Y-75570772D01*
X133439000Y-75735184D01*
X133439000Y-75902816D01*
X133406297Y-76067228D01*
X133342147Y-76222100D01*
X133249015Y-76361481D01*
X133130481Y-76480015D01*
X132991100Y-76573147D01*
X132836228Y-76637297D01*
X132671816Y-76670000D01*
X132504184Y-76670000D01*
X132339772Y-76637297D01*
X132184900Y-76573147D01*
X132045519Y-76480015D01*
X131926985Y-76361481D01*
X131833853Y-76222100D01*
X131769703Y-76067228D01*
X131737000Y-75902816D01*
X131737000Y-75735184D01*
X131769703Y-75570772D01*
X131833853Y-75415900D01*
X131926985Y-75276519D01*
X132045519Y-75157985D01*
X132184900Y-75064853D01*
X132339772Y-75000703D01*
X132504184Y-74968000D01*
X132671816Y-74968000D01*
X132836228Y-75000703D01*
G37*
G36*
X125819000Y-74130000D02*
G01*
X124117000Y-74130000D01*
X124117000Y-72428000D01*
X125819000Y-72428000D01*
X125819000Y-74130000D01*
G37*
G36*
X132836228Y-72460703D02*
G01*
X132991100Y-72524853D01*
X133130481Y-72617985D01*
X133249015Y-72736519D01*
X133342147Y-72875900D01*
X133406297Y-73030772D01*
X133439000Y-73195184D01*
X133439000Y-73362816D01*
X133406297Y-73527228D01*
X133342147Y-73682100D01*
X133249015Y-73821481D01*
X133130481Y-73940015D01*
X132991100Y-74033147D01*
X132836228Y-74097297D01*
X132671816Y-74130000D01*
X132504184Y-74130000D01*
X132339772Y-74097297D01*
X132184900Y-74033147D01*
X132045519Y-73940015D01*
X131926985Y-73821481D01*
X131833853Y-73682100D01*
X131769703Y-73527228D01*
X131737000Y-73362816D01*
X131737000Y-73195184D01*
X131769703Y-73030772D01*
X131833853Y-72875900D01*
X131926985Y-72736519D01*
X132045519Y-72617985D01*
X132184900Y-72524853D01*
X132339772Y-72460703D01*
X132504184Y-72428000D01*
X132671816Y-72428000D01*
X132836228Y-72460703D01*
G37*
M02*
